# Blender v2.81 (sub 16) OBJ File: 'nc_player_hand.blend'
# www.blender.org
o Body.001_Plane.003
v -0.167878 -0.472585 0.137818
v -0.239840 -1.090953 0.135585
v -0.374002 -0.448597 0.137725
v -0.445964 -1.066965 0.135491
v -0.168053 -0.473299 0.341182
v -0.240016 -1.091667 0.338948
v -0.374177 -0.449311 0.341088
v -0.446139 -1.067679 0.338855
v -0.153965 -0.442830 0.127766
v -0.233123 -1.123035 0.125310
v -0.380701 -0.416443 0.127664
v -0.459860 -1.096648 0.125207
v -0.154158 -0.443615 0.351466
v -0.233316 -1.123820 0.349009
v -0.380894 -0.417229 0.351363
v -0.460052 -1.097434 0.348907
vt 0.812500 0.500000
vt 0.812500 0.687500
vt 0.750000 0.687500
vt 0.750000 0.500000
vt 0.687500 0.687500
vt 0.687500 0.500000
vt 0.625000 0.687500
vt 0.625000 0.500000
vt 0.875000 0.500000
vt 0.875000 0.687500
vt 0.812500 0.750000
vt 0.750000 0.750000
vt 0.750000 0.687500
vt 0.812500 0.687500
vt 0.750000 0.750000
vt 0.687500 0.750000
vt 0.812500 0.250000
vt 0.812500 0.437500
vt 0.750000 0.437500
vt 0.750000 0.250000
vt 0.687500 0.437500
vt 0.687500 0.250000
vt 0.625000 0.437500
vt 0.625000 0.250000
vt 0.875000 0.250000
vt 0.875000 0.437500
vt 0.812500 0.500000
vt 0.750000 0.500000
vt 0.750000 0.437500
vt 0.812500 0.437500
vt 0.750000 0.500000
vt 0.687500 0.500000
vn 0.0009 0.0035 -1.0000
vn -0.9933 0.1156 -0.0005
vn -0.0009 -0.0035 1.0000
vn 0.9933 -0.1156 0.0005
vn 0.1156 0.9933 0.0036
vn -0.1156 -0.9933 -0.0036
s off
f 1/1/1 2/2/1 4/3/1 3/4/1
f 3/4/2 4/3/2 8/5/2 7/6/2
f 7/6/3 8/5/3 6/7/3 5/8/3
f 5/9/4 6/10/4 2/2/4 1/1/4
f 3/11/5 7/12/5 5/13/5 1/14/5
f 8/5/6 4/3/6 2/15/6 6/16/6
f 9/17/1 10/18/1 12/19/1 11/20/1
f 11/20/2 12/19/2 16/21/2 15/22/2
f 15/22/3 16/21/3 14/23/3 13/24/3
f 13/25/4 14/26/4 10/18/4 9/17/4
f 11/27/5 15/28/5 13/29/5 9/30/5
f 16/21/6 12/19/6 10/31/6 14/32/6
o Text
v 1.608750 0.365225 0.000000
v 1.564250 0.365225 0.000000
v 1.564250 0.244225 0.000000
v 1.559830 0.245768 0.000000
v 1.555560 0.247149 0.000000
v 1.551422 0.248374 0.000000
v 1.547398 0.249447 0.000000
v 1.543472 0.250375 0.000000
v 1.539625 0.251163 0.000000
v 1.535841 0.251815 0.000000
v 1.532102 0.252336 0.000000
v 1.528391 0.252733 0.000000
v 1.524690 0.253010 0.000000
v 1.520982 0.253172 0.000000
v 1.517250 0.253225 0.000000
v 1.501287 0.252273 0.000000
v 1.486211 0.249480 0.000000
v 1.472117 0.244944 0.000000
v 1.459102 0.238762 0.000000
v 1.447260 0.231032 0.000000
v 1.436687 0.221850 0.000000
v 1.427479 0.211314 0.000000
v 1.419731 0.199521 0.000000
v 1.413539 0.186569 0.000000
v 1.408997 0.172554 0.000000
v 1.406202 0.157573 0.000000
v 1.405250 0.141725 0.000000
v 1.406115 0.124288 0.000000
v 1.408671 0.108021 0.000000
v 1.412859 0.092991 0.000000
v 1.418620 0.079262 0.000000
v 1.425895 0.066902 0.000000
v 1.434625 0.055975 0.000000
v 1.444751 0.046549 0.000000
v 1.456213 0.038688 0.000000
v 1.468953 0.032459 0.000000
v 1.482912 0.027929 0.000000
v 1.498031 0.025162 0.000000
v 1.514250 0.024225 0.000000
v 1.608750 0.024225 0.000000
v 1.564250 0.061725 0.000000
v 1.519250 0.061725 0.000000
v 1.507084 0.062369 0.000000
v 1.496294 0.064253 0.000000
v 1.486820 0.067303 0.000000
v 1.478602 0.071447 0.000000
v 1.471578 0.076612 0.000000
v 1.465688 0.082725 0.000000
v 1.460870 0.089713 0.000000
v 1.457065 0.097503 0.000000
v 1.454211 0.106022 0.000000
v 1.452248 0.115197 0.000000
v 1.451114 0.124956 0.000000
v 1.450750 0.135225 0.000000
v 1.451345 0.146633 0.000000
v 1.453097 0.157322 0.000000
v 1.455953 0.167241 0.000000
v 1.459861 0.176336 0.000000
v 1.464769 0.184557 0.000000
v 1.470625 0.191850 0.000000
v 1.477377 0.198164 0.000000
v 1.484972 0.203447 0.000000
v 1.493360 0.207647 0.000000
v 1.502486 0.210711 0.000000
v 1.512301 0.212588 0.000000
v 1.522750 0.213225 0.000000
v 1.526431 0.213172 0.000000
v 1.529991 0.213012 0.000000
v 1.533453 0.212741 0.000000
v 1.536843 0.212355 0.000000
v 1.540184 0.211851 0.000000
v 1.543500 0.211225 0.000000
v 1.546817 0.210475 0.000000
v 1.550157 0.209596 0.000000
v 1.553547 0.208585 0.000000
v 1.557009 0.207438 0.000000
v 1.560569 0.206153 0.000000
v 1.564250 0.204725 0.000000
v 1.219750 0.248725 0.000000
v 1.219750 0.024225 0.000000
v 1.264250 0.024225 0.000000
v 1.264250 0.141725 0.000000
v 1.264740 0.151170 0.000000
v 1.266169 0.160204 0.000000
v 1.268476 0.168749 0.000000
v 1.271602 0.176725 0.000000
v 1.275484 0.184056 0.000000
v 1.280063 0.190663 0.000000
v 1.285276 0.196467 0.000000
v 1.291065 0.201392 0.000000
v 1.297367 0.205358 0.000000
v 1.304123 0.208288 0.000000
v 1.311271 0.210103 0.000000
v 1.318750 0.210725 0.000000
v 1.321514 0.210541 0.000000
v 1.324532 0.209998 0.000000
v 1.327766 0.209116 0.000000
v 1.331176 0.207910 0.000000
v 1.334725 0.206399 0.000000
v 1.338375 0.204600 0.000000
v 1.342087 0.202530 0.000000
v 1.345824 0.200207 0.000000
v 1.349547 0.197647 0.000000
v 1.353218 0.194869 0.000000
v 1.356798 0.191889 0.000000
v 1.360250 0.188725 0.000000
v 1.383750 0.227225 0.000000
v 1.379155 0.231413 0.000000
v 1.374614 0.235227 0.000000
v 1.370117 0.238670 0.000000
v 1.365658 0.241744 0.000000
v 1.361226 0.244449 0.000000
v 1.356813 0.246788 0.000000
v 1.352410 0.248762 0.000000
v 1.348009 0.250373 0.000000
v 1.343602 0.251624 0.000000
v 1.339178 0.252515 0.000000
v 1.334731 0.253048 0.000000
v 1.330250 0.253225 0.000000
v 1.324989 0.252878 0.000000
v 1.319706 0.251820 0.000000
v 1.314399 0.250030 0.000000
v 1.309065 0.247484 0.000000
v 1.303703 0.244161 0.000000
v 1.298313 0.240038 0.000000
v 1.292890 0.235091 0.000000
v 1.287435 0.229299 0.000000
v 1.281945 0.222639 0.000000
v 1.276419 0.215089 0.000000
v 1.270855 0.206625 0.000000
v 1.265250 0.197225 0.000000
v 1.264250 0.197225 0.000000
v 1.264250 0.248725 0.000000
v 1.177250 0.064225 0.000000
v 1.174773 0.062413 0.000000
v 1.172350 0.060732 0.000000
v 1.169992 0.059186 0.000000
v 1.167713 0.057781 0.000000
v 1.165524 0.056521 0.000000
v 1.163438 0.055413 0.000000
v 1.161466 0.054460 0.000000
v 1.159620 0.053670 0.000000
v 1.157914 0.053045 0.000000
v 1.156359 0.052593 0.000000
v 1.154967 0.052318 0.000000
v 1.153750 0.052225 0.000000
v 1.152427 0.052289 0.000000
v 1.151211 0.052487 0.000000
v 1.150102 0.052827 0.000000
v 1.149102 0.053318 0.000000
v 1.148213 0.053968 0.000000
v 1.147438 0.054788 0.000000
v 1.146776 0.055784 0.000000
v 1.146232 0.056966 0.000000
v 1.145805 0.058342 0.000000
v 1.145498 0.059922 0.000000
v 1.145312 0.061713 0.000000
v 1.145250 0.063725 0.000000
v 1.145250 0.179225 0.000000
v 1.144515 0.191395 0.000000
v 1.142373 0.202415 0.000000
v 1.138914 0.212303 0.000000
v 1.134232 0.221077 0.000000
v 1.128417 0.228754 0.000000
v 1.121563 0.235350 0.000000
v 1.113760 0.240884 0.000000
v 1.105102 0.245373 0.000000
v 1.095680 0.248835 0.000000
v 1.085586 0.251285 0.000000
v 1.074912 0.252743 0.000000
v 1.063750 0.253225 0.000000
v 1.055791 0.253017 0.000000
v 1.048162 0.252389 0.000000
v 1.040859 0.251342 0.000000
v 1.033880 0.249873 0.000000
v 1.027219 0.247981 0.000000
v 1.020875 0.245663 0.000000
v 1.014843 0.242918 0.000000
v 1.009120 0.239744 0.000000
v 1.003703 0.236139 0.000000
v 0.998588 0.232102 0.000000
v 0.993772 0.227632 0.000000
v 0.989250 0.222725 0.000000
v 0.989250 0.174225 0.000000
v 0.994696 0.180310 0.000000
v 1.000273 0.185820 0.000000
v 1.005969 0.190764 0.000000
v 1.011768 0.195151 0.000000
v 1.017658 0.198989 0.000000
v 1.023625 0.202288 0.000000
v 1.029654 0.205055 0.000000
v 1.035731 0.207299 0.000000
v 1.041844 0.209030 0.000000
v 1.047977 0.210255 0.000000
v 1.054117 0.210984 0.000000
v 1.060250 0.211225 0.000000
v 1.066719 0.210983 0.000000
v 1.072625 0.210244 0.000000
v 1.077969 0.208991 0.000000
v 1.082750 0.207207 0.000000
v 1.086969 0.204874 0.000000
v 1.090625 0.201975 0.000000
v 1.093719 0.198493 0.000000
v 1.096250 0.194410 0.000000
v 1.098219 0.189710 0.000000
v 1.099625 0.184373 0.000000
v 1.100469 0.178384 0.000000
v 1.100750 0.171725 0.000000
v 1.100750 0.159725 0.000000
v 1.061250 0.145725 0.000000
v 1.052182 0.142447 0.000000
v 1.043083 0.139042 0.000000
v 1.034109 0.135405 0.000000
v 1.025417 0.131429 0.000000
v 1.017161 0.127008 0.000000
v 1.009500 0.122038 0.000000
v 1.002589 0.116411 0.000000
v 0.996583 0.110021 0.000000
v 0.991641 0.102764 0.000000
v 0.987917 0.094533 0.000000
v 0.985568 0.085222 0.000000
v 0.984750 0.074725 0.000000
v 0.985202 0.067551 0.000000
v 0.986532 0.060582 0.000000
v 0.988703 0.053897 0.000000
v 0.991676 0.047577 0.000000
v 0.995413 0.041701 0.000000
v 0.999875 0.036350 0.000000
v 1.005025 0.031603 0.000000
v 1.010824 0.027540 0.000000
v 1.017234 0.024241 0.000000
v 1.024217 0.021785 0.000000
v 1.031735 0.020254 0.000000
v 1.039750 0.019725 0.000000
v 1.044874 0.019882 0.000000
v 1.049995 0.020352 0.000000
v 1.055109 0.021139 0.000000
v 1.060213 0.022244 0.000000
v 1.065303 0.023668 0.000000
v 1.070375 0.025413 0.000000
v 1.075426 0.027481 0.000000
v 1.080454 0.029873 0.000000
v 1.085453 0.032592 0.000000
v 1.090421 0.035639 0.000000
v 1.095355 0.039016 0.000000
v 1.100250 0.042725 0.000000
v 1.101387 0.038911 0.000000
v 1.102803 0.035466 0.000000
v 1.104508 0.032381 0.000000
v 1.106509 0.029651 0.000000
v 1.108816 0.027268 0.000000
v 1.111438 0.025225 0.000000
v 1.114382 0.023516 0.000000
v 1.117658 0.022132 0.000000
v 1.121274 0.021069 0.000000
v 1.125239 0.020318 0.000000
v 1.129561 0.019872 0.000000
v 1.134250 0.019725 0.000000
v 1.137646 0.019812 0.000000
v 1.140873 0.020084 0.000000
v 1.143992 0.020561 0.000000
v 1.147065 0.021262 0.000000
v 1.150151 0.022206 0.000000
v 1.153313 0.023413 0.000000
v 1.156609 0.024900 0.000000
v 1.160102 0.026688 0.000000
v 1.163852 0.028795 0.000000
v 1.167919 0.031241 0.000000
v 1.172365 0.034045 0.000000
v 1.177250 0.037225 0.000000
v 1.100750 0.069725 0.000000
v 1.097729 0.066945 0.000000
v 1.094667 0.064362 0.000000
v 1.091562 0.061983 0.000000
v 1.088417 0.059818 0.000000
v 1.085229 0.057875 0.000000
v 1.082000 0.056163 0.000000
v 1.078729 0.054690 0.000000
v 1.075417 0.053466 0.000000
v 1.072062 0.052499 0.000000
v 1.068667 0.051797 0.000000
v 1.065229 0.051370 0.000000
v 1.061750 0.051225 0.000000
v 1.057234 0.051492 0.000000
v 1.052956 0.052274 0.000000
v 1.048945 0.053545 0.000000
v 1.045232 0.055281 0.000000
v 1.041844 0.057453 0.000000
v 1.038813 0.060038 0.000000
v 1.036167 0.063007 0.000000
v 1.033935 0.066336 0.000000
v 1.032149 0.069999 0.000000
v 1.030836 0.073968 0.000000
v 1.030026 0.078219 0.000000
v 1.029750 0.082725 0.000000
v 1.030421 0.089077 0.000000
v 1.032370 0.094913 0.000000
v 1.035500 0.100280 0.000000
v 1.039713 0.105225 0.000000
v 1.044912 0.109795 0.000000
v 1.051000 0.114038 0.000000
v 1.057880 0.117999 0.000000
v 1.065454 0.121725 0.000000
v 1.073625 0.125264 0.000000
v 1.082296 0.128663 0.000000
v 1.091370 0.131967 0.000000
v 1.100750 0.135225 0.000000
v 0.808750 0.248725 0.000000
v 0.775750 0.248725 0.000000
v 0.718750 0.112725 0.000000
v 0.659750 0.248725 0.000000
v 0.612250 0.248725 0.000000
v 0.712250 0.019725 0.000000
v 0.726250 0.019725 0.000000
v 0.792250 0.176725 0.000000
v 0.858750 0.019725 0.000000
v 0.872750 0.019725 0.000000
v 0.971750 0.248725 0.000000
v 0.924250 0.248725 0.000000
v 0.865750 0.112725 0.000000
v 0.448750 0.248725 0.000000
v 0.448750 0.024225 0.000000
v 0.493250 0.024225 0.000000
v 0.493250 0.141725 0.000000
v 0.493740 0.151170 0.000000
v 0.495169 0.160204 0.000000
v 0.497477 0.168749 0.000000
v 0.500602 0.176725 0.000000
v 0.504484 0.184056 0.000000
v 0.509063 0.190663 0.000000
v 0.514277 0.196467 0.000000
v 0.520065 0.201392 0.000000
v 0.526367 0.205358 0.000000
v 0.533123 0.208288 0.000000
v 0.540271 0.210103 0.000000
v 0.547750 0.210725 0.000000
v 0.550515 0.210541 0.000000
v 0.553533 0.209998 0.000000
v 0.556766 0.209116 0.000000
v 0.560176 0.207910 0.000000
v 0.563725 0.206399 0.000000
v 0.567375 0.204600 0.000000
v 0.571087 0.202530 0.000000
v 0.574824 0.200207 0.000000
v 0.578547 0.197647 0.000000
v 0.582218 0.194869 0.000000
v 0.585798 0.191889 0.000000
v 0.589250 0.188725 0.000000
v 0.612750 0.227225 0.000000
v 0.608155 0.231413 0.000000
v 0.603614 0.235227 0.000000
v 0.599117 0.238670 0.000000
v 0.594658 0.241744 0.000000
v 0.590226 0.244449 0.000000
v 0.585813 0.246788 0.000000
v 0.581410 0.248762 0.000000
v 0.577009 0.250373 0.000000
v 0.572602 0.251624 0.000000
v 0.568178 0.252515 0.000000
v 0.563731 0.253048 0.000000
v 0.559250 0.253225 0.000000
v 0.553989 0.252878 0.000000
v 0.548706 0.251820 0.000000
v 0.543399 0.250030 0.000000
v 0.538065 0.247484 0.000000
v 0.532704 0.244161 0.000000
v 0.527313 0.240038 0.000000
v 0.521891 0.235091 0.000000
v 0.516435 0.229299 0.000000
v 0.510945 0.222639 0.000000
v 0.505419 0.215089 0.000000
v 0.499855 0.206625 0.000000
v 0.494250 0.197225 0.000000
v 0.493250 0.197225 0.000000
v 0.493250 0.248725 0.000000
v 0.274750 0.253225 0.000000
v 0.258344 0.252204 0.000000
v 0.242708 0.249223 0.000000
v 0.227969 0.244405 0.000000
v 0.214250 0.237873 0.000000
v 0.201677 0.229751 0.000000
v 0.190375 0.220163 0.000000
v 0.180469 0.209230 0.000000
v 0.172083 0.197077 0.000000
v 0.165344 0.183827 0.000000
v 0.160375 0.169602 0.000000
v 0.157302 0.154528 0.000000
v 0.156250 0.138725 0.000000
v 0.157264 0.121889 0.000000
v 0.160236 0.105952 0.000000
v 0.165063 0.091022 0.000000
v 0.171639 0.077207 0.000000
v 0.179861 0.064613 0.000000
v 0.189625 0.053350 0.000000
v 0.200826 0.043524 0.000000
v 0.213361 0.035244 0.000000
v 0.227125 0.028616 0.000000
v 0.242014 0.023748 0.000000
v 0.257924 0.020749 0.000000
v 0.274750 0.019725 0.000000
v 0.292266 0.020711 0.000000
v 0.308750 0.023609 0.000000
v 0.324109 0.028335 0.000000
v 0.338250 0.034799 0.000000
v 0.351078 0.042917 0.000000
v 0.362500 0.052600 0.000000
v 0.372422 0.063763 0.000000
v 0.380750 0.076318 0.000000
v 0.387391 0.090178 0.000000
v 0.392250 0.105258 0.000000
v 0.395234 0.121469 0.000000
v 0.396250 0.138725 0.000000
v 0.395206 0.154948 0.000000
v 0.392146 0.170297 0.000000
v 0.387180 0.184670 0.000000
v 0.380417 0.197966 0.000000
v 0.371966 0.210081 0.000000
v 0.361938 0.220913 0.000000
v 0.350440 0.230359 0.000000
v 0.337583 0.238318 0.000000
v 0.323477 0.244686 0.000000
v 0.308229 0.249362 0.000000
v 0.291951 0.252242 0.000000
v 0.274250 0.213225 0.000000
v 0.285103 0.212580 0.000000
v 0.295368 0.210690 0.000000
v 0.304977 0.207624 0.000000
v 0.313861 0.203447 0.000000
v 0.321954 0.198229 0.000000
v 0.329188 0.192038 0.000000
v 0.335494 0.184940 0.000000
v 0.340806 0.177003 0.000000
v 0.345055 0.168295 0.000000
v 0.348174 0.158885 0.000000
v 0.350095 0.148839 0.000000
v 0.350750 0.138225 0.000000
v 0.350142 0.126492 0.000000
v 0.348347 0.115570 0.000000
v 0.345406 0.105499 0.000000
v 0.341361 0.096318 0.000000
v 0.336254 0.088067 0.000000
v 0.330125 0.080788 0.000000
v 0.323017 0.074518 0.000000
v 0.314972 0.069299 0.000000
v 0.306031 0.065170 0.000000
v 0.296236 0.062172 0.000000
v 0.285629 0.060343 0.000000
v 0.274250 0.059725 0.000000
v 0.263791 0.060372 0.000000
v 0.253949 0.062278 0.000000
v 0.244781 0.065389 0.000000
v 0.236343 0.069651 0.000000
v 0.228689 0.075010 0.000000
v 0.221875 0.081413 0.000000
v 0.215957 0.088805 0.000000
v 0.210991 0.097133 0.000000
v 0.207031 0.106342 0.000000
v 0.204134 0.116380 0.000000
v 0.202355 0.127192 0.000000
v 0.201750 0.138725 0.000000
v 0.202375 0.149224 0.000000
v 0.204204 0.159174 0.000000
v 0.207172 0.168506 0.000000
v 0.211213 0.177151 0.000000
v 0.216261 0.185039 0.000000
v 0.222250 0.192100 0.000000
v 0.229114 0.198266 0.000000
v 0.236787 0.203466 0.000000
v 0.245203 0.207631 0.000000
v 0.254296 0.210693 0.000000
v 0.264001 0.212580 0.000000
v 0.161250 0.365225 0.000000
v 0.151777 0.367564 0.000000
v 0.142843 0.369105 0.000000
v 0.134422 0.369881 0.000000
v 0.126491 0.369929 0.000000
v 0.119025 0.369282 0.000000
v 0.112000 0.367975 0.000000
v 0.105392 0.366043 0.000000
v 0.099176 0.363521 0.000000
v 0.093328 0.360444 0.000000
v 0.087824 0.356845 0.000000
v 0.082640 0.352761 0.000000
v 0.077750 0.348225 0.000000
v 0.073408 0.343651 0.000000
v 0.069389 0.338883 0.000000
v 0.065703 0.333850 0.000000
v 0.062361 0.328484 0.000000
v 0.059373 0.322716 0.000000
v 0.056750 0.316475 0.000000
v 0.054502 0.309693 0.000000
v 0.052639 0.302299 0.000000
v 0.051172 0.294225 0.000000
v 0.050111 0.285401 0.000000
v 0.049467 0.275757 0.000000
v 0.049250 0.265225 0.000000
v 0.049250 0.248725 0.000000
v 0.017750 0.248725 0.000000
v 0.017750 0.208725 0.000000
v 0.049250 0.208725 0.000000
v 0.049250 0.024225 0.000000
v 0.093750 0.024225 0.000000
v 0.093750 0.208725 0.000000
v 0.134250 0.208725 0.000000
v 0.134250 0.248725 0.000000
v 0.093750 0.248725 0.000000
v 0.093750 0.270225 0.000000
v 0.093997 0.278565 0.000000
v 0.094769 0.286315 0.000000
v 0.096109 0.293452 0.000000
v 0.098065 0.299947 0.000000
v 0.100680 0.305776 0.000000
v 0.104000 0.310913 0.000000
v 0.108070 0.315330 0.000000
v 0.112935 0.319003 0.000000
v 0.118641 0.321905 0.000000
v 0.125232 0.324010 0.000000
v 0.132753 0.325292 0.000000
v 0.141250 0.325725 0.000000
v 0.143181 0.325704 0.000000
v 0.144989 0.325637 0.000000
v 0.146695 0.325522 0.000000
v 0.148324 0.325355 0.000000
v 0.149897 0.325132 0.000000
v 0.151438 0.324850 0.000000
v 0.152967 0.324506 0.000000
v 0.154509 0.324095 0.000000
v 0.156086 0.323616 0.000000
v 0.157720 0.323063 0.000000
v 0.159434 0.322434 0.000000
v 0.161250 0.321725 0.000000
v -0.277250 0.247725 0.000000
v -0.368750 0.365225 0.000000
v -0.427750 0.365225 0.000000
v -0.301250 0.204725 0.000000
v -0.301250 0.024225 0.000000
v -0.252250 0.024225 0.000000
v -0.252250 0.204225 0.000000
v -0.125750 0.365225 0.000000
v -0.184750 0.365225 0.000000
v -0.646750 -0.034775 0.000000
v -0.637301 -0.031592 0.000000
v -0.628702 -0.027601 0.000000
v -0.620945 -0.022892 0.000000
v -0.614028 -0.017553 0.000000
v -0.607944 -0.011672 0.000000
v -0.602688 -0.005337 0.000000
v -0.598255 0.001361 0.000000
v -0.594639 0.008336 0.000000
v -0.591836 0.015499 0.000000
v -0.589840 0.022760 0.000000
v -0.588647 0.030032 0.000000
v -0.588250 0.037225 0.000000
v -0.588538 0.044376 0.000000
v -0.589387 0.051061 0.000000
v -0.590774 0.057249 0.000000
v -0.592676 0.062910 0.000000
v -0.595072 0.068016 0.000000
v -0.597938 0.072538 0.000000
v -0.601252 0.076444 0.000000
v -0.604991 0.079707 0.000000
v -0.609133 0.082295 0.000000
v -0.613655 0.084181 0.000000
v -0.618535 0.085334 0.000000
v -0.623750 0.085725 0.000000
v -0.627902 0.085479 0.000000
v -0.631838 0.084760 0.000000
v -0.635531 0.083592 0.000000
v -0.638954 0.082003 0.000000
v -0.642078 0.080018 0.000000
v -0.644875 0.077663 0.000000
v -0.647318 0.074964 0.000000
v -0.649380 0.071947 0.000000
v -0.651031 0.068639 0.000000
v -0.652246 0.065065 0.000000
v -0.652994 0.061252 0.000000
v -0.653250 0.057225 0.000000
v -0.653045 0.053218 0.000000
v -0.652442 0.049457 0.000000
v -0.651461 0.045960 0.000000
v -0.650120 0.042744 0.000000
v -0.648440 0.039826 0.000000
v -0.646438 0.037225 0.000000
v -0.644133 0.034957 0.000000
v -0.641546 0.033040 0.000000
v -0.638695 0.031491 0.000000
v -0.635600 0.030327 0.000000
v -0.632278 0.029566 0.000000
v -0.628750 0.029225 0.000000
v -0.627844 0.024582 0.000000
v -0.627375 0.019702 0.000000
v -0.627344 0.014663 0.000000
v -0.627750 0.009540 0.000000
v -0.628594 0.004410 0.000000
v -0.629875 -0.000650 0.000000
v -0.631594 -0.005564 0.000000
v -0.633750 -0.010256 0.000000
v -0.636344 -0.014650 0.000000
v -0.639375 -0.018668 0.000000
v -0.642844 -0.022235 0.000000
v -0.646750 -0.025275 0.000000
v -0.853250 0.029725 0.000000
v -0.849070 0.028058 0.000000
v -0.845021 0.026554 0.000000
v -0.841086 0.025209 0.000000
v -0.837250 0.024021 0.000000
v -0.833497 0.022986 0.000000
v -0.829813 0.022100 0.000000
v -0.826180 0.021360 0.000000
v -0.822583 0.020762 0.000000
v -0.819008 0.020303 0.000000
v -0.815438 0.019980 0.000000
v -0.811857 0.019788 0.000000
v -0.808250 0.019725 0.000000
v -0.792037 0.020699 0.000000
v -0.776715 0.023556 0.000000
v -0.762383 0.028202 0.000000
v -0.749139 0.034540 0.000000
v -0.737083 0.042475 0.000000
v -0.726313 0.051913 0.000000
v -0.716928 0.062756 0.000000
v -0.709028 0.074910 0.000000
v -0.702711 0.088280 0.000000
v -0.698076 0.102769 0.000000
v -0.695223 0.118283 0.000000
v -0.694250 0.134725 0.000000
v -0.695173 0.152513 0.000000
v -0.697926 0.168864 0.000000
v -0.702484 0.183756 0.000000
v -0.708824 0.197170 0.000000
v -0.716921 0.209083 0.000000
v -0.726750 0.219475 0.000000
v -0.738288 0.228326 0.000000
v -0.751509 0.235614 0.000000
v -0.766391 0.241319 0.000000
v -0.782907 0.245420 0.000000
v -0.801035 0.247895 0.000000
v -0.820750 0.248725 0.000000
v -0.897750 0.248725 0.000000
v -0.897750 -0.090775 0.000000
v -0.853250 -0.090775 0.000000
v -0.853250 0.208725 0.000000
v -0.812750 0.208725 0.000000
v -0.801125 0.208167 0.000000
v -0.790502 0.206510 0.000000
v -0.780883 0.203780 0.000000
v -0.772269 0.200003 0.000000
v -0.764661 0.195205 0.000000
v -0.758063 0.189413 0.000000
v -0.752474 0.182651 0.000000
v -0.747898 0.174947 0.000000
v -0.744336 0.166327 0.000000
v -0.741790 0.156815 0.000000
v -0.740260 0.146440 0.000000
v -0.739750 0.135225 0.000000
v -0.740364 0.124602 0.000000
v -0.742164 0.114528 0.000000
v -0.745086 0.105077 0.000000
v -0.749065 0.096318 0.000000
v -0.754037 0.088323 0.000000
v -0.759938 0.081163 0.000000
v -0.766703 0.074909 0.000000
v -0.774269 0.069633 0.000000
v -0.782570 0.065405 0.000000
v -0.791544 0.062297 0.000000
v -0.801125 0.060380 0.000000
v -0.811250 0.059725 0.000000
v -0.814760 0.059798 0.000000
v -0.818285 0.060014 0.000000
v -0.821820 0.060374 0.000000
v -0.825361 0.060873 0.000000
v -0.828902 0.061512 0.000000
v -0.832438 0.062288 0.000000
v -0.835963 0.063199 0.000000
v -0.839472 0.064244 0.000000
v -0.842961 0.065420 0.000000
v -0.846424 0.066727 0.000000
v -0.849855 0.068163 0.000000
v -0.853250 0.069725 0.000000
v -0.957750 0.024225 0.000000
v -0.957750 0.248725 0.000000
v -1.002250 0.248725 0.000000
v -1.002250 0.088225 0.000000
v -1.005967 0.083299 0.000000
v -1.009859 0.078774 0.000000
v -1.013914 0.074655 0.000000
v -1.018120 0.070947 0.000000
v -1.022466 0.067657 0.000000
v -1.026937 0.064788 0.000000
v -1.031524 0.062346 0.000000
v -1.036213 0.060336 0.000000
v -1.040992 0.058764 0.000000
v -1.045850 0.057635 0.000000
v -1.050773 0.056953 0.000000
v -1.055750 0.056725 0.000000
v -1.063062 0.057098 0.000000
v -1.069748 0.058204 0.000000
v -1.075805 0.060030 0.000000
v -1.081232 0.062558 0.000000
v -1.086026 0.065775 0.000000
v -1.090188 0.069663 0.000000
v -1.093713 0.074207 0.000000
v -1.096602 0.079392 0.000000
v -1.098852 0.085202 0.000000
v -1.100461 0.091621 0.000000
v -1.101427 0.098634 0.000000
v -1.101750 0.106225 0.000000
v -1.101750 0.248725 0.000000
v -1.146250 0.248725 0.000000
v -1.146250 0.109225 0.000000
v -1.145594 0.095490 0.000000
v -1.143669 0.082804 0.000000
v -1.140539 0.071194 0.000000
v -1.136268 0.060688 0.000000
v -1.130922 0.051314 0.000000
v -1.124563 0.043100 0.000000
v -1.117255 0.036074 0.000000
v -1.109065 0.030262 0.000000
v -1.100055 0.025694 0.000000
v -1.090289 0.022396 0.000000
v -1.079833 0.020398 0.000000
v -1.068750 0.019725 0.000000
v -1.063173 0.019993 0.000000
v -1.057470 0.020781 0.000000
v -1.051680 0.022069 0.000000
v -1.045843 0.023836 0.000000
v -1.039999 0.026062 0.000000
v -1.034188 0.028725 0.000000
v -1.028449 0.031805 0.000000
v -1.022824 0.035281 0.000000
v -1.017352 0.039131 0.000000
v -1.012072 0.043336 0.000000
v -1.007025 0.047874 0.000000
v -1.002250 0.052725 0.000000
v -1.002250 0.024225 0.000000
v -1.413250 0.321225 0.000000
v -1.630250 0.024225 0.000000
v -1.322750 0.024225 0.000000
v -1.322750 0.068225 0.000000
v -1.539750 0.068225 0.000000
v -1.322750 0.365225 0.000000
v -1.616750 0.365225 0.000000
v -1.616750 0.321225 0.000000
v 0.981500 0.753225 0.000000
v 0.977444 0.752950 0.000000
v 0.973549 0.752149 0.000000
v 0.969852 0.750858 0.000000
v 0.966389 0.749114 0.000000
v 0.963197 0.746953 0.000000
v 0.960313 0.744413 0.000000
v 0.957772 0.741528 0.000000
v 0.955611 0.738336 0.000000
v 0.953867 0.734874 0.000000
v 0.952576 0.731176 0.000000
v 0.951775 0.727282 0.000000
v 0.951500 0.723225 0.000000
v 0.951775 0.719169 0.000000
v 0.952576 0.715274 0.000000
v 0.953867 0.711577 0.000000
v 0.955611 0.708114 0.000000
v 0.957772 0.704922 0.000000
v 0.960313 0.702038 0.000000
v 0.963197 0.699497 0.000000
v 0.966389 0.697336 0.000000
v 0.969852 0.695592 0.000000
v 0.973549 0.694301 0.000000
v 0.977444 0.693500 0.000000
v 0.981500 0.693225 0.000000
v 0.985556 0.693500 0.000000
v 0.989451 0.694302 0.000000
v 0.993148 0.695592 0.000000
v 0.996611 0.697336 0.000000
v 0.999803 0.699497 0.000000
v 1.002687 0.702038 0.000000
v 1.005228 0.704922 0.000000
v 1.007389 0.708114 0.000000
v 1.009133 0.711577 0.000000
v 1.010424 0.715274 0.000000
v 1.011225 0.719169 0.000000
v 1.011500 0.723225 0.000000
v 1.011225 0.727282 0.000000
v 1.010424 0.731176 0.000000
v 1.009133 0.734874 0.000000
v 1.007389 0.738336 0.000000
v 1.005228 0.741528 0.000000
v 1.002688 0.744413 0.000000
v 0.999803 0.746953 0.000000
v 0.996611 0.749114 0.000000
v 0.993149 0.750858 0.000000
v 0.989451 0.752149 0.000000
v 0.985556 0.752950 0.000000
v 0.981500 0.579725 0.000000
v 0.977444 0.579450 0.000000
v 0.973549 0.578649 0.000000
v 0.969852 0.577358 0.000000
v 0.966389 0.575614 0.000000
v 0.963197 0.573453 0.000000
v 0.960313 0.570913 0.000000
v 0.957772 0.568028 0.000000
v 0.955611 0.564836 0.000000
v 0.953867 0.561374 0.000000
v 0.952576 0.557676 0.000000
v 0.951775 0.553782 0.000000
v 0.951500 0.549725 0.000000
v 0.951775 0.545669 0.000000
v 0.952576 0.541774 0.000000
v 0.953867 0.538077 0.000000
v 0.955611 0.534614 0.000000
v 0.957772 0.531422 0.000000
v 0.960313 0.528538 0.000000
v 0.963197 0.525997 0.000000
v 0.966389 0.523836 0.000000
v 0.969852 0.522092 0.000000
v 0.973549 0.520801 0.000000
v 0.977444 0.520000 0.000000
v 0.981500 0.519725 0.000000
v 0.985556 0.520000 0.000000
v 0.989451 0.520801 0.000000
v 0.993148 0.522092 0.000000
v 0.996611 0.523836 0.000000
v 0.999803 0.525997 0.000000
v 1.002687 0.528538 0.000000
v 1.005228 0.531422 0.000000
v 1.007389 0.534614 0.000000
v 1.009133 0.538077 0.000000
v 1.010424 0.541774 0.000000
v 1.011225 0.545669 0.000000
v 1.011500 0.549725 0.000000
v 1.011225 0.553782 0.000000
v 1.010424 0.557676 0.000000
v 1.009133 0.561374 0.000000
v 1.007389 0.564836 0.000000
v 1.005228 0.568028 0.000000
v 1.002688 0.570913 0.000000
v 0.999803 0.573453 0.000000
v 0.996611 0.575614 0.000000
v 0.993149 0.577358 0.000000
v 0.989451 0.578649 0.000000
v 0.985556 0.579450 0.000000
v 0.924000 0.748725 0.000000
v 0.831500 0.748725 0.000000
v 0.816863 0.748117 0.000000
v 0.803234 0.746318 0.000000
v 0.790664 0.743366 0.000000
v 0.779204 0.739299 0.000000
v 0.768903 0.734156 0.000000
v 0.759813 0.727975 0.000000
v 0.751982 0.720794 0.000000
v 0.745463 0.712651 0.000000
v 0.740305 0.703584 0.000000
v 0.736558 0.693632 0.000000
v 0.734273 0.682833 0.000000
v 0.733500 0.671225 0.000000
v 0.733583 0.667152 0.000000
v 0.733833 0.663183 0.000000
v 0.734250 0.659319 0.000000
v 0.734833 0.655558 0.000000
v 0.735583 0.651902 0.000000
v 0.736500 0.648350 0.000000
v 0.737583 0.644902 0.000000
v 0.738833 0.641558 0.000000
v 0.740250 0.638319 0.000000
v 0.741833 0.635183 0.000000
v 0.743583 0.632152 0.000000
v 0.745500 0.629225 0.000000
v 0.747708 0.626277 0.000000
v 0.750083 0.623433 0.000000
v 0.752625 0.620694 0.000000
v 0.755333 0.618058 0.000000
v 0.758208 0.615527 0.000000
v 0.761250 0.613100 0.000000
v 0.764458 0.610777 0.000000
v 0.767833 0.608558 0.000000
v 0.771375 0.606444 0.000000
v 0.775083 0.604433 0.000000
v 0.778958 0.602527 0.000000
v 0.783000 0.600725 0.000000
v 0.783000 0.599725 0.000000
v 0.777785 0.598322 0.000000
v 0.772905 0.596626 0.000000
v 0.768383 0.594655 0.000000
v 0.764241 0.592429 0.000000
v 0.760501 0.589967 0.000000
v 0.757187 0.587288 0.000000
v 0.754321 0.584411 0.000000
v 0.751926 0.581355 0.000000
v 0.750023 0.578139 0.000000
v 0.748637 0.574783 0.000000
v 0.747788 0.571305 0.000000
v 0.747500 0.567725 0.000000
v 0.747647 0.565245 0.000000
v 0.748090 0.562801 0.000000
v 0.748836 0.560389 0.000000
v 0.749889 0.558003 0.000000
v 0.751254 0.555637 0.000000
v 0.752938 0.553288 0.000000
v 0.754944 0.550948 0.000000
v 0.757278 0.548614 0.000000
v 0.759945 0.546280 0.000000
v 0.762951 0.543940 0.000000
v 0.766301 0.541591 0.000000
v 0.770000 0.539225 0.000000
v 0.760696 0.536640 0.000000
v 0.752273 0.533626 0.000000
v 0.744719 0.530170 0.000000
v 0.738019 0.526262 0.000000
v 0.732159 0.521889 0.000000
v 0.727125 0.517038 0.000000
v 0.722904 0.511697 0.000000
v 0.719482 0.505855 0.000000
v 0.716844 0.499499 0.000000
v 0.714977 0.492616 0.000000
v 0.713867 0.485196 0.000000
v 0.713500 0.477225 0.000000
v 0.714381 0.467589 0.000000
v 0.716965 0.458473 0.000000
v 0.721164 0.449936 0.000000
v 0.726889 0.442040 0.000000
v 0.734051 0.434845 0.000000
v 0.742563 0.428413 0.000000
v 0.752334 0.422803 0.000000
v 0.763278 0.418077 0.000000
v 0.775305 0.414295 0.000000
v 0.788327 0.411519 0.000000
v 0.802254 0.409809 0.000000
v 0.817000 0.409225 0.000000
v 0.833055 0.409782 0.000000
v 0.847942 0.411431 0.000000
v 0.861617 0.414139 0.000000
v 0.874037 0.417873 0.000000
v 0.885158 0.422600 0.000000
v 0.894937 0.428288 0.000000
v 0.903331 0.434902 0.000000
v 0.910296 0.442410 0.000000
v 0.915789 0.450780 0.000000
v 0.919766 0.459977 0.000000
v 0.922184 0.469970 0.000000
v 0.923000 0.480725 0.000000
v 0.922638 0.487760 0.000000
v 0.921519 0.494591 0.000000
v 0.919594 0.501178 0.000000
v 0.916815 0.507484 0.000000
v 0.913133 0.513471 0.000000
v 0.908500 0.519100 0.000000
v 0.902867 0.524333 0.000000
v 0.896185 0.529133 0.000000
v 0.888406 0.533459 0.000000
v 0.879481 0.537276 0.000000
v 0.869362 0.540544 0.000000
v 0.858000 0.543225 0.000000
v 0.847199 0.545448 0.000000
v 0.837301 0.547630 0.000000
v 0.828313 0.549795 0.000000
v 0.820241 0.551966 0.000000
v 0.813093 0.554164 0.000000
v 0.806875 0.556413 0.000000
v 0.801595 0.558734 0.000000
v 0.797259 0.561151 0.000000
v 0.793875 0.563686 0.000000
v 0.791449 0.566362 0.000000
v 0.789988 0.569201 0.000000
v 0.789500 0.572225 0.000000
v 0.790718 0.578017 0.000000
v 0.794157 0.582352 0.000000
v 0.799500 0.585545 0.000000
v 0.806426 0.587910 0.000000
v 0.814616 0.589761 0.000000
v 0.823750 0.591413 0.000000
v 0.833509 0.593179 0.000000
v 0.843574 0.595373 0.000000
v 0.853625 0.598311 0.000000
v 0.863343 0.602306 0.000000
v 0.872407 0.607673 0.000000
v 0.880500 0.614725 0.000000
v 0.883119 0.617571 0.000000
v 0.885701 0.620827 0.000000
v 0.888211 0.624444 0.000000
v 0.890611 0.628373 0.000000
v 0.892865 0.632567 0.000000
v 0.894938 0.636975 0.000000
v 0.896791 0.641550 0.000000
v 0.898389 0.646244 0.000000
v 0.899695 0.651006 0.000000
v 0.900674 0.655790 0.000000
v 0.901287 0.660546 0.000000
v 0.901500 0.665225 0.000000
v 0.901372 0.669846 0.000000
v 0.900975 0.674237 0.000000
v 0.900289 0.678436 0.000000
v 0.899296 0.682484 0.000000
v 0.897977 0.686422 0.000000
v 0.896313 0.690288 0.000000
v 0.894283 0.694122 0.000000
v 0.891870 0.697966 0.000000
v 0.889055 0.701858 0.000000
v 0.885817 0.705839 0.000000
v 0.882139 0.709948 0.000000
v 0.878000 0.714225 0.000000
v 0.924000 0.714225 0.000000
v 0.861500 0.670725 0.000000
v 0.861131 0.664752 0.000000
v 0.860051 0.659107 0.000000
v 0.858297 0.653827 0.000000
v 0.855907 0.648947 0.000000
v 0.852921 0.644506 0.000000
v 0.849375 0.640538 0.000000
v 0.845308 0.637080 0.000000
v 0.840759 0.634170 0.000000
v 0.835766 0.631842 0.000000
v 0.830366 0.630135 0.000000
v 0.824598 0.629084 0.000000
v 0.818500 0.628725 0.000000
v 0.811943 0.629064 0.000000
v 0.805792 0.630061 0.000000
v 0.800078 0.631686 0.000000
v 0.794833 0.633910 0.000000
v 0.790089 0.636704 0.000000
v 0.785875 0.640038 0.000000
v 0.782224 0.643882 0.000000
v 0.779167 0.648207 0.000000
v 0.776734 0.652983 0.000000
v 0.774958 0.658181 0.000000
v 0.773870 0.663772 0.000000
v 0.773500 0.669725 0.000000
v 0.773908 0.675144 0.000000
v 0.775095 0.680364 0.000000
v 0.777008 0.685335 0.000000
v 0.779593 0.690003 0.000000
v 0.782795 0.694317 0.000000
v 0.786563 0.698225 0.000000
v 0.790840 0.701675 0.000000
v 0.795574 0.704614 0.000000
v 0.800711 0.706991 0.000000
v 0.806197 0.708753 0.000000
v 0.811978 0.709848 0.000000
v 0.818000 0.710225 0.000000
v 0.823793 0.709859 0.000000
v 0.829382 0.708792 0.000000
v 0.834711 0.707077 0.000000
v 0.839722 0.704762 0.000000
v 0.844359 0.701899 0.000000
v 0.848563 0.698538 0.000000
v 0.852277 0.694728 0.000000
v 0.855444 0.690521 0.000000
v 0.858008 0.685967 0.000000
v 0.859910 0.681116 0.000000
v 0.861093 0.676019 0.000000
v 0.880000 0.477225 0.000000
v 0.879525 0.472279 0.000000
v 0.878116 0.467700 0.000000
v 0.875797 0.463499 0.000000
v 0.872593 0.459688 0.000000
v 0.868527 0.456280 0.000000
v 0.863625 0.453288 0.000000
v 0.857910 0.450722 0.000000
v 0.851407 0.448595 0.000000
v 0.844141 0.446920 0.000000
v 0.836134 0.445709 0.000000
v 0.827413 0.444973 0.000000
v 0.818000 0.444725 0.000000
v 0.808262 0.444974 0.000000
v 0.799308 0.445718 0.000000
v 0.791148 0.446952 0.000000
v 0.783796 0.448670 0.000000
v 0.777264 0.450867 0.000000
v 0.771563 0.453538 0.000000
v 0.766705 0.456677 0.000000
v 0.762704 0.460281 0.000000
v 0.759570 0.464342 0.000000
v 0.757317 0.468857 0.000000
v 0.755956 0.473820 0.000000
v 0.755500 0.479225 0.000000
v 0.755931 0.484095 0.000000
v 0.757195 0.488688 0.000000
v 0.759250 0.492975 0.000000
v 0.762056 0.496929 0.000000
v 0.765570 0.500521 0.000000
v 0.769750 0.503725 0.000000
v 0.774556 0.506512 0.000000
v 0.779945 0.508855 0.000000
v 0.785875 0.510725 0.000000
v 0.792306 0.512096 0.000000
v 0.799195 0.512938 0.000000
v 0.806500 0.513225 0.000000
v 0.813723 0.513061 0.000000
v 0.821493 0.512538 0.000000
v 0.829586 0.511608 0.000000
v 0.837778 0.510225 0.000000
v 0.845845 0.508342 0.000000
v 0.853562 0.505913 0.000000
v 0.860707 0.502889 0.000000
v 0.867055 0.499225 0.000000
v 0.872383 0.494874 0.000000
v 0.876465 0.489788 0.000000
v 0.879079 0.483920 0.000000
v 0.538500 0.748725 0.000000
v 0.494000 0.748725 0.000000
v 0.494000 0.524225 0.000000
v 0.538500 0.524225 0.000000
v 0.538500 0.685225 0.000000
v 0.543641 0.690801 0.000000
v 0.548586 0.695792 0.000000
v 0.553367 0.700217 0.000000
v 0.558019 0.704095 0.000000
v 0.562573 0.707446 0.000000
v 0.567062 0.710288 0.000000
v 0.571521 0.712640 0.000000
v 0.575981 0.714521 0.000000
v 0.580477 0.715952 0.000000
v 0.585039 0.716950 0.000000
v 0.589703 0.717534 0.000000
v 0.594500 0.717725 0.000000
v 0.601038 0.717283 0.000000
v 0.607134 0.715980 0.000000
v 0.612766 0.713850 0.000000
v 0.617908 0.710929 0.000000
v 0.622535 0.707251 0.000000
v 0.626625 0.702850 0.000000
v 0.630152 0.697762 0.000000
v 0.633093 0.692021 0.000000
v 0.635422 0.685663 0.000000
v 0.637116 0.678720 0.000000
v 0.638150 0.671230 0.000000
v 0.638500 0.663225 0.000000
v 0.638500 0.524225 0.000000
v 0.683000 0.524225 0.000000
v 0.683000 0.662725 0.000000
v 0.682306 0.677425 0.000000
v 0.680285 0.690783 0.000000
v 0.677023 0.702811 0.000000
v 0.672611 0.713521 0.000000
v 0.667136 0.722926 0.000000
v 0.660688 0.731038 0.000000
v 0.653353 0.737868 0.000000
v 0.645222 0.743429 0.000000
v 0.636383 0.747733 0.000000
v 0.626924 0.750792 0.000000
v 0.616933 0.752619 0.000000
v 0.606500 0.753225 0.000000
v 0.600255 0.752967 0.000000
v 0.594037 0.752200 0.000000
v 0.587875 0.750936 0.000000
v 0.581796 0.749188 0.000000
v 0.575829 0.746968 0.000000
v 0.570000 0.744288 0.000000
v 0.564338 0.741159 0.000000
v 0.558870 0.737595 0.000000
v 0.553625 0.733608 0.000000
v 0.548630 0.729209 0.000000
v 0.543912 0.724411 0.000000
v 0.539500 0.719225 0.000000
v 0.538500 0.719225 0.000000
v 0.431000 0.748725 0.000000
v 0.386500 0.748725 0.000000
v 0.386500 0.524225 0.000000
v 0.431000 0.524225 0.000000
v 0.435500 0.816725 0.000000
v 0.435255 0.820293 0.000000
v 0.434544 0.823723 0.000000
v 0.433398 0.826983 0.000000
v 0.431852 0.830040 0.000000
v 0.429937 0.832861 0.000000
v 0.427687 0.835413 0.000000
v 0.425136 0.837662 0.000000
v 0.422315 0.839577 0.000000
v 0.419258 0.841124 0.000000
v 0.415998 0.842269 0.000000
v 0.412567 0.842981 0.000000
v 0.409000 0.843225 0.000000
v 0.405433 0.842981 0.000000
v 0.402002 0.842269 0.000000
v 0.398742 0.841124 0.000000
v 0.395685 0.839577 0.000000
v 0.392864 0.837662 0.000000
v 0.390312 0.835413 0.000000
v 0.388063 0.832861 0.000000
v 0.386148 0.830040 0.000000
v 0.384602 0.826983 0.000000
v 0.383456 0.823723 0.000000
v 0.382744 0.820292 0.000000
v 0.382500 0.816725 0.000000
v 0.382744 0.813158 0.000000
v 0.383456 0.809727 0.000000
v 0.384602 0.806467 0.000000
v 0.386148 0.803410 0.000000
v 0.388063 0.800589 0.000000
v 0.390312 0.798038 0.000000
v 0.392864 0.795788 0.000000
v 0.395685 0.793873 0.000000
v 0.398742 0.792327 0.000000
v 0.402002 0.791181 0.000000
v 0.405433 0.790470 0.000000
v 0.409000 0.790225 0.000000
v 0.412567 0.790470 0.000000
v 0.415998 0.791181 0.000000
v 0.419258 0.792327 0.000000
v 0.422315 0.793873 0.000000
v 0.425136 0.795788 0.000000
v 0.427687 0.798038 0.000000
v 0.429937 0.800589 0.000000
v 0.431852 0.803410 0.000000
v 0.433398 0.806467 0.000000
v 0.434544 0.809727 0.000000
v 0.435256 0.813158 0.000000
v 0.271000 0.795225 0.000000
v 0.187500 0.713725 0.000000
v 0.187500 0.708725 0.000000
v 0.226500 0.708725 0.000000
v 0.226500 0.590225 0.000000
v 0.227010 0.580330 0.000000
v 0.228539 0.570940 0.000000
v 0.231086 0.562124 0.000000
v 0.234648 0.553947 0.000000
v 0.239224 0.546479 0.000000
v 0.244812 0.539788 0.000000
v 0.251411 0.533940 0.000000
v 0.259018 0.529003 0.000000
v 0.267633 0.525045 0.000000
v 0.277252 0.522135 0.000000
v 0.287875 0.520339 0.000000
v 0.299500 0.519725 0.000000
v 0.303312 0.519858 0.000000
v 0.307458 0.520246 0.000000
v 0.311875 0.520874 0.000000
v 0.316500 0.521725 0.000000
v 0.321271 0.522785 0.000000
v 0.326125 0.524038 0.000000
v 0.331000 0.525467 0.000000
v 0.335833 0.527058 0.000000
v 0.340563 0.528795 0.000000
v 0.345125 0.530663 0.000000
v 0.349458 0.532644 0.000000
v 0.353500 0.534725 0.000000
v 0.353500 0.576225 0.000000
v 0.349031 0.573590 0.000000
v 0.344620 0.571183 0.000000
v 0.340266 0.569006 0.000000
v 0.335963 0.567058 0.000000
v 0.331709 0.565340 0.000000
v 0.327500 0.563850 0.000000
v 0.323333 0.562590 0.000000
v 0.319204 0.561558 0.000000
v 0.315109 0.560756 0.000000
v 0.311046 0.560183 0.000000
v 0.307011 0.559840 0.000000
v 0.303000 0.559725 0.000000
v 0.299639 0.559888 0.000000
v 0.296116 0.560403 0.000000
v 0.292516 0.561311 0.000000
v 0.288926 0.562651 0.000000
v 0.285433 0.564463 0.000000
v 0.282125 0.566788 0.000000
v 0.279087 0.569664 0.000000
v 0.276407 0.573133 0.000000
v 0.274172 0.577233 0.000000
v 0.272468 0.582005 0.000000
v 0.271381 0.587489 0.000000
v 0.271000 0.593725 0.000000
v 0.271000 0.708725 0.000000
v 0.342000 0.708725 0.000000
v 0.342000 0.748725 0.000000
v 0.271000 0.748725 0.000000
v 0.024000 0.748725 0.000000
v 0.024000 0.524225 0.000000
v 0.068500 0.524225 0.000000
v 0.068500 0.641725 0.000000
v 0.068990 0.651170 0.000000
v 0.070419 0.660204 0.000000
v 0.072727 0.668749 0.000000
v 0.075852 0.676725 0.000000
v 0.079734 0.684056 0.000000
v 0.084313 0.690663 0.000000
v 0.089526 0.696467 0.000000
v 0.095315 0.701392 0.000000
v 0.101617 0.705358 0.000000
v 0.108373 0.708288 0.000000
v 0.115521 0.710103 0.000000
v 0.123000 0.710725 0.000000
v 0.125765 0.710541 0.000000
v 0.128782 0.709998 0.000000
v 0.132016 0.709116 0.000000
v 0.135426 0.707910 0.000000
v 0.138975 0.706399 0.000000
v 0.142625 0.704600 0.000000
v 0.146337 0.702530 0.000000
v 0.150074 0.700207 0.000000
v 0.153797 0.697647 0.000000
v 0.157468 0.694869 0.000000
v 0.161048 0.691889 0.000000
v 0.164500 0.688725 0.000000
v 0.188000 0.727225 0.000000
v 0.183405 0.731413 0.000000
v 0.178863 0.735227 0.000000
v 0.174367 0.738670 0.000000
v 0.169907 0.741744 0.000000
v 0.165475 0.744449 0.000000
v 0.161063 0.746788 0.000000
v 0.156660 0.748762 0.000000
v 0.152259 0.750373 0.000000
v 0.147852 0.751624 0.000000
v 0.143428 0.752514 0.000000
v 0.138981 0.753048 0.000000
v 0.134500 0.753225 0.000000
v 0.129239 0.752878 0.000000
v 0.123956 0.751820 0.000000
v 0.118648 0.750030 0.000000
v 0.113315 0.747484 0.000000
v 0.107953 0.744161 0.000000
v 0.102563 0.740038 0.000000
v 0.097140 0.735091 0.000000
v 0.091685 0.729299 0.000000
v 0.086195 0.722639 0.000000
v 0.080669 0.715089 0.000000
v 0.075105 0.706625 0.000000
v 0.069500 0.697225 0.000000
v 0.068500 0.697225 0.000000
v 0.068500 0.748725 0.000000
v -0.150000 0.753225 0.000000
v -0.166406 0.752204 0.000000
v -0.182042 0.749223 0.000000
v -0.196781 0.744405 0.000000
v -0.210500 0.737873 0.000000
v -0.223073 0.729751 0.000000
v -0.234375 0.720163 0.000000
v -0.244281 0.709230 0.000000
v -0.252667 0.697077 0.000000
v -0.259406 0.683827 0.000000
v -0.264375 0.669602 0.000000
v -0.267448 0.654528 0.000000
v -0.268500 0.638725 0.000000
v -0.267486 0.621889 0.000000
v -0.264514 0.605952 0.000000
v -0.259687 0.591022 0.000000
v -0.253111 0.577207 0.000000
v -0.244889 0.564613 0.000000
v -0.235125 0.553350 0.000000
v -0.223924 0.543524 0.000000
v -0.211389 0.535244 0.000000
v -0.197625 0.528616 0.000000
v -0.182736 0.523748 0.000000
v -0.166826 0.520749 0.000000
v -0.150000 0.519725 0.000000
v -0.132484 0.520711 0.000000
v -0.116000 0.523609 0.000000
v -0.100641 0.528334 0.000000
v -0.086500 0.534799 0.000000
v -0.073672 0.542917 0.000000
v -0.062250 0.552600 0.000000
v -0.052328 0.563763 0.000000
v -0.044000 0.576318 0.000000
v -0.037359 0.590178 0.000000
v -0.032500 0.605258 0.000000
v -0.029516 0.621469 0.000000
v -0.028500 0.638725 0.000000
v -0.029544 0.654948 0.000000
v -0.032604 0.670297 0.000000
v -0.037570 0.684670 0.000000
v -0.044333 0.697966 0.000000
v -0.052784 0.710081 0.000000
v -0.062812 0.720913 0.000000
v -0.074310 0.730359 0.000000
v -0.087167 0.738318 0.000000
v -0.101273 0.744686 0.000000
v -0.116521 0.749362 0.000000
v -0.132799 0.752242 0.000000
v -0.150500 0.713225 0.000000
v -0.139647 0.712580 0.000000
v -0.129382 0.710690 0.000000
v -0.119773 0.707624 0.000000
v -0.110889 0.703447 0.000000
v -0.102796 0.698229 0.000000
v -0.095562 0.692038 0.000000
v -0.089256 0.684940 0.000000
v -0.083944 0.677003 0.000000
v -0.079695 0.668295 0.000000
v -0.076576 0.658885 0.000000
v -0.074655 0.648839 0.000000
v -0.074000 0.638225 0.000000
v -0.074608 0.626492 0.000000
v -0.076403 0.615570 0.000000
v -0.079344 0.605499 0.000000
v -0.083389 0.596318 0.000000
v -0.088496 0.588067 0.000000
v -0.094625 0.580788 0.000000
v -0.101733 0.574518 0.000000
v -0.109778 0.569299 0.000000
v -0.118719 0.565170 0.000000
v -0.128514 0.562172 0.000000
v -0.139122 0.560344 0.000000
v -0.150500 0.559725 0.000000
v -0.160959 0.560372 0.000000
v -0.170801 0.562278 0.000000
v -0.179969 0.565389 0.000000
v -0.188407 0.569651 0.000000
v -0.196061 0.575010 0.000000
v -0.202875 0.581413 0.000000
v -0.208793 0.588805 0.000000
v -0.213759 0.597133 0.000000
v -0.217719 0.606342 0.000000
v -0.220616 0.616380 0.000000
v -0.222395 0.627192 0.000000
v -0.223000 0.638725 0.000000
v -0.222376 0.649224 0.000000
v -0.220546 0.659174 0.000000
v -0.217578 0.668506 0.000000
v -0.213537 0.677151 0.000000
v -0.208489 0.685039 0.000000
v -0.202500 0.692100 0.000000
v -0.195636 0.698266 0.000000
v -0.187963 0.703466 0.000000
v -0.179547 0.707631 0.000000
v -0.170454 0.710693 0.000000
v -0.160749 0.712580 0.000000
v -0.463500 0.529725 0.000000
v -0.459320 0.528058 0.000000
v -0.455271 0.526554 0.000000
v -0.451336 0.525209 0.000000
v -0.447500 0.524021 0.000000
v -0.443747 0.522986 0.000000
v -0.440062 0.522100 0.000000
v -0.436430 0.521360 0.000000
v -0.432833 0.520762 0.000000
v -0.429258 0.520303 0.000000
v -0.425687 0.519980 0.000000
v -0.422107 0.519788 0.000000
v -0.418500 0.519725 0.000000
v -0.402287 0.520699 0.000000
v -0.386965 0.523556 0.000000
v -0.372633 0.528202 0.000000
v -0.359389 0.534540 0.000000
v -0.347332 0.542475 0.000000
v -0.336562 0.551913 0.000000
v -0.327178 0.562756 0.000000
v -0.319278 0.574910 0.000000
v -0.312961 0.588280 0.000000
v -0.308326 0.602769 0.000000
v -0.305473 0.618283 0.000000
v -0.304500 0.634725 0.000000
v -0.305423 0.652513 0.000000
v -0.308176 0.668864 0.000000
v -0.312734 0.683756 0.000000
v -0.319074 0.697170 0.000000
v -0.327171 0.709083 0.000000
v -0.337000 0.719475 0.000000
v -0.348538 0.728326 0.000000
v -0.361759 0.735614 0.000000
v -0.376641 0.741319 0.000000
v -0.393157 0.745420 0.000000
v -0.411285 0.747895 0.000000
v -0.431000 0.748725 0.000000
v -0.508000 0.748725 0.000000
v -0.508000 0.409225 0.000000
v -0.463500 0.409225 0.000000
v -0.463500 0.708725 0.000000
v -0.423000 0.708725 0.000000
v -0.411375 0.708167 0.000000
v -0.400752 0.706510 0.000000
v -0.391133 0.703780 0.000000
v -0.382518 0.700003 0.000000
v -0.374911 0.695205 0.000000
v -0.368312 0.689413 0.000000
v -0.362724 0.682651 0.000000
v -0.358148 0.674947 0.000000
v -0.354586 0.666327 0.000000
v -0.352039 0.656815 0.000000
v -0.350510 0.646440 0.000000
v -0.350000 0.635225 0.000000
v -0.350614 0.624602 0.000000
v -0.352414 0.614528 0.000000
v -0.355336 0.605077 0.000000
v -0.359315 0.596318 0.000000
v -0.364287 0.588323 0.000000
v -0.370187 0.581163 0.000000
v -0.376953 0.574909 0.000000
v -0.384518 0.569633 0.000000
v -0.392820 0.565405 0.000000
v -0.401794 0.562297 0.000000
v -0.411375 0.560380 0.000000
v -0.421500 0.559725 0.000000
v -0.425010 0.559798 0.000000
v -0.428535 0.560014 0.000000
v -0.432070 0.560374 0.000000
v -0.435611 0.560873 0.000000
v -0.439152 0.561512 0.000000
v -0.442688 0.562288 0.000000
v -0.446213 0.563199 0.000000
v -0.449722 0.564244 0.000000
v -0.453211 0.565420 0.000000
v -0.456674 0.566727 0.000000
v -0.460105 0.568163 0.000000
v -0.463500 0.569725 0.000000
v -0.543000 0.748725 0.000000
v -0.600000 0.748725 0.000000
v -0.664000 0.671725 0.000000
v -0.730500 0.748725 0.000000
v -0.786500 0.748725 0.000000
v -0.692000 0.638225 0.000000
v -0.786500 0.524225 0.000000
v -0.730500 0.524225 0.000000
v -0.664000 0.604725 0.000000
v -0.593500 0.524225 0.000000
v -0.536500 0.524225 0.000000
v -0.635500 0.638225 0.000000
v -0.805500 0.865225 0.000000
v -0.999000 0.865225 0.000000
v -0.999000 0.524225 0.000000
v -0.801000 0.524225 0.000000
v -0.801000 0.568225 0.000000
v -0.950000 0.568225 0.000000
v -0.950000 0.674225 0.000000
v -0.810500 0.674225 0.000000
v -0.810500 0.718225 0.000000
v -0.950000 0.718225 0.000000
v -0.950000 0.821225 0.000000
v -0.805500 0.821225 0.000000
vn 0.0000 0.0000 1.0000
vn 0.0000 0.0000 -1.0000
s off
f 19//7 17//7 18//7
f 19//7 56//7 17//7
f 32//7 30//7 31//7
f 32//7 29//7 30//7
f 32//7 28//7 29//7
f 32//7 27//7 28//7
f 32//7 26//7 27//7
f 33//7 26//7 32//7
f 33//7 25//7 26//7
f 33//7 24//7 25//7
f 33//7 23//7 24//7
f 34//7 23//7 33//7
f 34//7 22//7 23//7
f 34//7 21//7 22//7
f 34//7 20//7 21//7
f 34//7 19//7 20//7
f 35//7 19//7 34//7
f 35//7 91//7 19//7
f 91//7 92//7 19//7
f 92//7 93//7 19//7
f 93//7 94//7 19//7
f 94//7 56//7 19//7
f 36//7 88//7 35//7
f 88//7 89//7 35//7
f 89//7 90//7 35//7
f 90//7 91//7 35//7
f 37//7 85//7 36//7
f 85//7 86//7 36//7
f 86//7 87//7 36//7
f 87//7 88//7 36//7
f 38//7 82//7 37//7
f 82//7 83//7 37//7
f 83//7 84//7 37//7
f 84//7 85//7 37//7
f 38//7 81//7 82//7
f 38//7 80//7 81//7
f 39//7 80//7 38//7
f 39//7 79//7 80//7
f 39//7 78//7 79//7
f 57//7 56//7 94//7
f 39//7 77//7 78//7
f 40//7 77//7 39//7
f 40//7 76//7 77//7
f 40//7 75//7 76//7
f 41//7 75//7 40//7
f 41//7 74//7 75//7
f 41//7 73//7 74//7
f 42//7 73//7 41//7
f 42//7 72//7 73//7
f 43//7 72//7 42//7
f 43//7 71//7 72//7
f 43//7 70//7 71//7
f 44//7 70//7 43//7
f 44//7 69//7 70//7
f 44//7 68//7 69//7
f 45//7 68//7 44//7
f 45//7 67//7 68//7
f 46//7 67//7 45//7
f 46//7 66//7 67//7
f 46//7 65//7 66//7
f 47//7 65//7 46//7
f 47//7 64//7 65//7
f 47//7 63//7 64//7
f 48//7 63//7 47//7
f 48//7 62//7 63//7
f 48//7 61//7 62//7
f 48//7 60//7 61//7
f 49//7 60//7 48//7
f 49//7 59//7 60//7
f 49//7 58//7 59//7
f 49//7 57//7 58//7
f 49//7 56//7 57//7
f 50//7 56//7 49//7
f 51//7 56//7 50//7
f 52//7 56//7 51//7
f 53//7 56//7 52//7
f 54//7 56//7 53//7
f 55//7 56//7 54//7
f 136//7 134//7 135//7
f 136//7 133//7 134//7
f 137//7 133//7 136//7
f 137//7 132//7 133//7
f 138//7 132//7 137//7
f 138//7 131//7 132//7
f 138//7 130//7 131//7
f 139//7 130//7 138//7
f 139//7 129//7 130//7
f 96//7 149//7 95//7
f 96//7 148//7 149//7
f 140//7 129//7 139//7
f 140//7 128//7 129//7
f 140//7 127//7 128//7
f 141//7 127//7 140//7
f 141//7 126//7 127//7
f 142//7 126//7 141//7
f 142//7 125//7 126//7
f 142//7 124//7 125//7
f 143//7 124//7 142//7
f 143//7 123//7 124//7
f 144//7 123//7 143//7
f 144//7 113//7 123//7
f 113//7 114//7 123//7
f 114//7 115//7 123//7
f 115//7 116//7 123//7
f 116//7 117//7 123//7
f 117//7 118//7 123//7
f 118//7 119//7 123//7
f 119//7 120//7 123//7
f 120//7 121//7 123//7
f 121//7 122//7 123//7
f 145//7 111//7 144//7
f 111//7 112//7 144//7
f 112//7 113//7 144//7
f 146//7 109//7 145//7
f 109//7 110//7 145//7
f 110//7 111//7 145//7
f 146//7 108//7 109//7
f 146//7 107//7 108//7
f 147//7 107//7 146//7
f 147//7 106//7 107//7
f 147//7 105//7 106//7
f 96//7 147//7 148//7
f 96//7 101//7 147//7
f 101//7 102//7 147//7
f 102//7 103//7 147//7
f 103//7 104//7 147//7
f 104//7 105//7 147//7
f 96//7 100//7 101//7
f 96//7 99//7 100//7
f 96//7 98//7 99//7
f 96//7 97//7 98//7
f 188//7 186//7 187//7
f 189//7 186//7 188//7
f 189//7 185//7 186//7
f 190//7 185//7 189//7
f 191//7 185//7 190//7
f 191//7 184//7 185//7
f 192//7 184//7 191//7
f 192//7 183//7 184//7
f 193//7 183//7 192//7
f 194//7 183//7 193//7
f 194//7 182//7 183//7
f 195//7 182//7 194//7
f 195//7 181//7 182//7
f 196//7 181//7 195//7
f 197//7 181//7 196//7
f 197//7 180//7 181//7
f 198//7 180//7 197//7
f 198//7 179//7 180//7
f 199//7 179//7 198//7
f 200//7 201//7 199//7
f 201//7 202//7 199//7
f 202//7 203//7 199//7
f 203//7 204//7 199//7
f 204//7 205//7 199//7
f 205//7 206//7 199//7
f 206//7 207//7 199//7
f 207//7 208//7 199//7
f 208//7 209//7 199//7
f 209//7 210//7 199//7
f 210//7 179//7 199//7
f 210//7 211//7 179//7
f 211//7 212//7 179//7
f 212//7 178//7 179//7
f 212//7 213//7 178//7
f 213//7 177//7 178//7
f 214//7 177//7 213//7
f 215//7 177//7 214//7
f 216//7 177//7 215//7
f 217//7 177//7 216//7
f 218//7 177//7 217//7
f 218//7 176//7 177//7
f 219//7 176//7 218//7
f 220//7 176//7 219//7
f 221//7 176//7 220//7
f 221//7 175//7 176//7
f 222//7 175//7 221//7
f 223//7 175//7 222//7
f 223//7 174//7 175//7
f 224//7 174//7 223//7
f 225//7 174//7 224//7
f 226//7 323//7 225//7
f 323//7 174//7 225//7
f 227//7 323//7 226//7
f 228//7 323//7 227//7
f 229//7 323//7 228//7
f 230//7 323//7 229//7
f 230//7 322//7 323//7
f 287//7 174//7 323//7
f 230//7 321//7 322//7
f 231//7 321//7 230//7
f 231//7 320//7 321//7
f 232//7 320//7 231//7
f 232//7 319//7 320//7
f 233//7 319//7 232//7
f 233//7 318//7 319//7
f 233//7 317//7 318//7
f 234//7 317//7 233//7
f 234//7 316//7 317//7
f 235//7 316//7 234//7
f 235//7 315//7 316//7
f 235//7 314//7 315//7
f 236//7 314//7 235//7
f 236//7 313//7 314//7
f 236//7 312//7 313//7
f 237//7 312//7 236//7
f 237//7 311//7 312//7
f 238//7 311//7 237//7
f 238//7 310//7 311//7
f 238//7 309//7 310//7
f 239//7 309//7 238//7
f 239//7 308//7 309//7
f 239//7 307//7 308//7
f 288//7 174//7 287//7
f 240//7 307//7 239//7
f 289//7 174//7 288//7
f 240//7 306//7 307//7
f 290//7 174//7 289//7
f 151//7 286//7 150//7
f 290//7 173//7 174//7
f 240//7 305//7 306//7
f 152//7 286//7 151//7
f 291//7 173//7 290//7
f 291//7 172//7 173//7
f 153//7 286//7 152//7
f 241//7 305//7 240//7
f 241//7 304//7 305//7
f 291//7 171//7 172//7
f 292//7 171//7 291//7
f 154//7 286//7 153//7
f 292//7 170//7 171//7
f 293//7 170//7 292//7
f 155//7 286//7 154//7
f 241//7 303//7 304//7
f 293//7 169//7 170//7
f 156//7 286//7 155//7
f 294//7 169//7 293//7
f 294//7 168//7 169//7
f 157//7 286//7 156//7
f 241//7 302//7 303//7
f 294//7 167//7 168//7
f 295//7 167//7 294//7
f 158//7 286//7 157//7
f 295//7 166//7 167//7
f 242//7 302//7 241//7
f 159//7 286//7 158//7
f 242//7 301//7 302//7
f 296//7 166//7 295//7
f 296//7 165//7 166//7
f 160//7 286//7 159//7
f 296//7 164//7 165//7
f 161//7 286//7 160//7
f 297//7 164//7 296//7
f 297//7 163//7 164//7
f 162//7 286//7 161//7
f 297//7 162//7 163//7
f 242//7 300//7 301//7
f 297//7 286//7 162//7
f 298//7 286//7 297//7
f 242//7 299//7 300//7
f 299//7 286//7 298//7
f 242//7 262//7 299//7
f 262//7 286//7 299//7
f 243//7 262//7 242//7
f 243//7 261//7 262//7
f 263//7 286//7 262//7
f 244//7 261//7 243//7
f 244//7 260//7 261//7
f 264//7 286//7 263//7
f 264//7 285//7 286//7
f 245//7 260//7 244//7
f 245//7 259//7 260//7
f 265//7 285//7 264//7
f 265//7 284//7 285//7
f 245//7 258//7 259//7
f 266//7 284//7 265//7
f 246//7 258//7 245//7
f 266//7 283//7 284//7
f 246//7 257//7 258//7
f 267//7 283//7 266//7
f 267//7 282//7 283//7
f 247//7 257//7 246//7
f 247//7 256//7 257//7
f 268//7 282//7 267//7
f 268//7 281//7 282//7
f 247//7 255//7 256//7
f 269//7 281//7 268//7
f 269//7 280//7 281//7
f 248//7 255//7 247//7
f 248//7 254//7 255//7
f 270//7 280//7 269//7
f 270//7 279//7 280//7
f 248//7 253//7 254//7
f 270//7 278//7 279//7
f 271//7 278//7 270//7
f 249//7 253//7 248//7
f 271//7 277//7 278//7
f 249//7 252//7 253//7
f 272//7 277//7 271//7
f 272//7 276//7 277//7
f 249//7 251//7 252//7
f 273//7 276//7 272//7
f 250//7 251//7 249//7
f 273//7 275//7 276//7
f 274//7 275//7 273//7
f 329//7 327//7 328//7
f 329//7 326//7 327//7
f 326//7 324//7 325//7
f 326//7 331//7 324//7
f 331//7 336//7 324//7
f 336//7 334//7 335//7
f 336//7 333//7 334//7
f 326//7 330//7 331//7
f 332//7 336//7 331//7
f 329//7 330//7 326//7
f 332//7 333//7 336//7
f 378//7 376//7 377//7
f 378//7 375//7 376//7
f 379//7 375//7 378//7
f 379//7 374//7 375//7
f 380//7 374//7 379//7
f 380//7 373//7 374//7
f 380//7 372//7 373//7
f 381//7 372//7 380//7
f 381//7 371//7 372//7
f 338//7 391//7 337//7
f 338//7 390//7 391//7
f 382//7 371//7 381//7
f 382//7 370//7 371//7
f 382//7 369//7 370//7
f 383//7 369//7 382//7
f 383//7 368//7 369//7
f 384//7 368//7 383//7
f 384//7 367//7 368//7
f 384//7 366//7 367//7
f 385//7 366//7 384//7
f 385//7 365//7 366//7
f 386//7 365//7 385//7
f 386//7 355//7 365//7
f 355//7 356//7 365//7
f 356//7 357//7 365//7
f 357//7 358//7 365//7
f 358//7 359//7 365//7
f 359//7 360//7 365//7
f 360//7 361//7 365//7
f 361//7 362//7 365//7
f 362//7 363//7 365//7
f 363//7 364//7 365//7
f 387//7 353//7 386//7
f 353//7 354//7 386//7
f 354//7 355//7 386//7
f 388//7 351//7 387//7
f 351//7 352//7 387//7
f 352//7 353//7 387//7
f 388//7 350//7 351//7
f 388//7 349//7 350//7
f 389//7 349//7 388//7
f 389//7 348//7 349//7
f 389//7 347//7 348//7
f 338//7 389//7 390//7
f 338//7 343//7 389//7
f 343//7 344//7 389//7
f 344//7 345//7 389//7
f 345//7 346//7 389//7
f 346//7 347//7 389//7
f 338//7 342//7 343//7
f 338//7 341//7 342//7
f 338//7 340//7 341//7
f 338//7 339//7 340//7
f 393//7 439//7 392//7
f 393//7 438//7 439//7
f 394//7 438//7 393//7
f 394//7 437//7 438//7
f 395//7 437//7 394//7
f 395//7 436//7 437//7
f 396//7 436//7 395//7
f 396//7 435//7 436//7
f 397//7 435//7 396//7
f 397//7 434//7 435//7
f 398//7 434//7 397//7
f 398//7 433//7 434//7
f 399//7 440//7 398//7
f 440//7 433//7 398//7
f 399//7 487//7 440//7
f 441//7 433//7 440//7
f 399//7 486//7 487//7
f 442//7 433//7 441//7
f 399//7 485//7 486//7
f 443//7 433//7 442//7
f 443//7 432//7 433//7
f 400//7 485//7 399//7
f 400//7 484//7 485//7
f 444//7 432//7 443//7
f 400//7 483//7 484//7
f 445//7 432//7 444//7
f 400//7 482//7 483//7
f 446//7 432//7 445//7
f 446//7 431//7 432//7
f 401//7 482//7 400//7
f 401//7 481//7 482//7
f 447//7 431//7 446//7
f 401//7 480//7 481//7
f 448//7 431//7 447//7
f 448//7 430//7 431//7
f 402//7 480//7 401//7
f 402//7 479//7 480//7
f 449//7 430//7 448//7
f 449//7 429//7 430//7
f 403//7 479//7 402//7
f 403//7 478//7 479//7
f 450//7 429//7 449//7
f 403//7 477//7 478//7
f 451//7 429//7 450//7
f 451//7 428//7 429//7
f 404//7 477//7 403//7
f 404//7 476//7 477//7
f 452//7 428//7 451//7
f 405//7 476//7 404//7
f 405//7 475//7 476//7
f 452//7 427//7 428//7
f 453//7 427//7 452//7
f 405//7 474//7 475//7
f 454//7 427//7 453//7
f 406//7 474//7 405//7
f 454//7 426//7 427//7
f 406//7 473//7 474//7
f 455//7 426//7 454//7
f 406//7 472//7 473//7
f 407//7 472//7 406//7
f 456//7 426//7 455//7
f 456//7 425//7 426//7
f 407//7 471//7 472//7
f 457//7 425//7 456//7
f 408//7 471//7 407//7
f 457//7 424//7 425//7
f 408//7 470//7 471//7
f 458//7 424//7 457//7
f 408//7 469//7 470//7
f 459//7 424//7 458//7
f 409//7 469//7 408//7
f 459//7 423//7 424//7
f 409//7 468//7 469//7
f 460//7 423//7 459//7
f 409//7 467//7 468//7
f 461//7 423//7 460//7
f 409//7 466//7 467//7
f 462//7 423//7 461//7
f 410//7 466//7 409//7
f 462//7 422//7 423//7
f 410//7 465//7 466//7
f 463//7 422//7 462//7
f 410//7 464//7 465//7
f 464//7 422//7 463//7
f 410//7 422//7 464//7
f 411//7 422//7 410//7
f 411//7 421//7 422//7
f 412//7 421//7 411//7
f 412//7 420//7 421//7
f 413//7 420//7 412//7
f 413//7 419//7 420//7
f 414//7 419//7 413//7
f 414//7 418//7 419//7
f 415//7 418//7 414//7
f 415//7 417//7 418//7
f 416//7 417//7 415//7
f 493//7 491//7 492//7
f 493//7 490//7 491//7
f 494//7 490//7 493//7
f 494//7 489//7 490//7
f 495//7 489//7 494//7
f 495//7 488//7 489//7
f 496//7 488//7 495//7
f 496//7 547//7 488//7
f 497//7 547//7 496//7
f 498//7 547//7 497//7
f 499//7 547//7 498//7
f 500//7 544//7 499//7
f 544//7 545//7 499//7
f 545//7 546//7 499//7
f 546//7 547//7 499//7
f 501//7 542//7 500//7
f 542//7 543//7 500//7
f 543//7 544//7 500//7
f 502//7 540//7 501//7
f 540//7 541//7 501//7
f 541//7 542//7 501//7
f 503//7 539//7 502//7
f 539//7 540//7 502//7
f 504//7 536//7 503//7
f 536//7 537//7 503//7
f 537//7 538//7 503//7
f 538//7 539//7 503//7
f 505//7 535//7 504//7
f 535//7 536//7 504//7
f 505//7 534//7 535//7
f 505//7 533//7 534//7
f 505//7 532//7 533//7
f 506//7 532//7 505//7
f 506//7 531//7 532//7
f 506//7 530//7 531//7
f 507//7 530//7 506//7
f 507//7 529//7 530//7
f 507//7 528//7 529//7
f 508//7 528//7 507//7
f 508//7 527//7 528//7
f 509//7 527//7 508//7
f 509//7 526//7 527//7
f 510//7 526//7 509//7
f 510//7 525//7 526//7
f 510//7 524//7 525//7
f 511//7 524//7 510//7
f 511//7 523//7 524//7
f 512//7 523//7 511//7
f 512//7 522//7 523//7
f 513//7 522//7 512//7
f 515//7 513//7 514//7
f 515//7 522//7 513//7
f 515//7 521//7 522//7
f 515//7 520//7 521//7
f 516//7 520//7 515//7
f 517//7 519//7 516//7
f 519//7 520//7 516//7
f 517//7 518//7 519//7
f 551//7 549//7 550//7
f 551//7 548//7 549//7
f 548//7 555//7 556//7
f 548//7 554//7 555//7
f 551//7 554//7 548//7
f 552//7 554//7 551//7
f 552//7 553//7 554//7
f 582//7 580//7 581//7
f 583//7 580//7 582//7
f 583//7 579//7 580//7
f 584//7 579//7 583//7
f 584//7 578//7 579//7
f 585//7 578//7 584//7
f 585//7 577//7 578//7
f 586//7 577//7 585//7
f 587//7 577//7 586//7
f 587//7 576//7 577//7
f 588//7 576//7 587//7
f 588//7 575//7 576//7
f 589//7 575//7 588//7
f 589//7 574//7 575//7
f 590//7 574//7 589//7
f 591//7 574//7 590//7
f 591//7 573//7 574//7
f 592//7 573//7 591//7
f 592//7 572//7 573//7
f 593//7 572//7 592//7
f 593//7 571//7 572//7
f 594//7 571//7 593//7
f 595//7 571//7 594//7
f 595//7 570//7 571//7
f 596//7 570//7 595//7
f 597//7 570//7 596//7
f 597//7 569//7 570//7
f 598//7 569//7 597//7
f 599//7 569//7 598//7
f 600//7 569//7 599//7
f 600//7 568//7 569//7
f 601//7 568//7 600//7
f 602//7 568//7 601//7
f 603//7 568//7 602//7
f 604//7 568//7 603//7
f 604//7 605//7 568//7
f 605//7 567//7 568//7
f 606//7 567//7 605//7
f 607//7 567//7 606//7
f 607//7 566//7 567//7
f 608//7 566//7 607//7
f 608//7 565//7 566//7
f 609//7 565//7 608//7
f 610//7 565//7 609//7
f 610//7 564//7 565//7
f 611//7 564//7 610//7
f 611//7 563//7 564//7
f 612//7 563//7 611//7
f 612//7 562//7 563//7
f 613//7 562//7 612//7
f 614//7 562//7 613//7
f 614//7 561//7 562//7
f 615//7 561//7 614//7
f 615//7 560//7 561//7
f 616//7 560//7 615//7
f 617//7 560//7 616//7
f 617//7 559//7 560//7
f 557//7 559//7 617//7
f 557//7 558//7 559//7
f 656//7 658//7 655//7
f 658//7 654//7 655//7
f 658//7 653//7 654//7
f 658//7 652//7 653//7
f 658//7 651//7 652//7
f 658//7 650//7 651//7
f 658//7 649//7 650//7
f 658//7 648//7 649//7
f 658//7 647//7 648//7
f 658//7 659//7 647//7
f 659//7 660//7 647//7
f 660//7 646//7 647//7
f 656//7 695//7 658//7
f 661//7 646//7 660//7
f 662//7 646//7 661//7
f 663//7 646//7 662//7
f 664//7 646//7 663//7
f 664//7 645//7 646//7
f 665//7 645//7 664//7
f 666//7 645//7 665//7
f 666//7 644//7 645//7
f 667//7 644//7 666//7
f 668//7 644//7 667//7
f 668//7 643//7 644//7
f 669//7 643//7 668//7
f 670//7 643//7 669//7
f 670//7 642//7 643//7
f 671//7 642//7 670//7
f 672//7 642//7 671//7
f 672//7 641//7 642//7
f 673//7 641//7 672//7
f 673//7 640//7 641//7
f 674//7 640//7 673//7
f 675//7 640//7 674//7
f 675//7 639//7 640//7
f 676//7 639//7 675//7
f 677//7 639//7 676//7
f 677//7 638//7 639//7
f 678//7 638//7 677//7
f 678//7 637//7 638//7
f 679//7 637//7 678//7
f 656//7 694//7 695//7
f 680//7 637//7 679//7
f 656//7 693//7 694//7
f 656//7 692//7 693//7
f 656//7 618//7 692//7
f 618//7 691//7 692//7
f 681//7 637//7 680//7
f 618//7 690//7 691//7
f 618//7 689//7 690//7
f 681//7 636//7 637//7
f 682//7 636//7 681//7
f 618//7 688//7 689//7
f 618//7 687//7 688//7
f 618//7 686//7 687//7
f 683//7 636//7 682//7
f 618//7 685//7 686//7
f 618//7 684//7 685//7
f 618//7 683//7 684//7
f 618//7 636//7 683//7
f 618//7 635//7 636//7
f 618//7 634//7 635//7
f 618//7 633//7 634//7
f 656//7 657//7 618//7
f 619//7 633//7 618//7
f 619//7 632//7 633//7
f 620//7 632//7 619//7
f 621//7 632//7 620//7
f 622//7 632//7 621//7
f 623//7 632//7 622//7
f 623//7 631//7 632//7
f 624//7 631//7 623//7
f 625//7 631//7 624//7
f 626//7 631//7 625//7
f 627//7 631//7 626//7
f 627//7 630//7 631//7
f 628//7 630//7 627//7
f 629//7 630//7 628//7
f 726//7 724//7 725//7
f 726//7 723//7 724//7
f 699//7 697//7 698//7
f 699//7 696//7 697//7
f 727//7 723//7 726//7
f 727//7 722//7 723//7
f 727//7 721//7 722//7
f 728//7 721//7 727//7
f 728//7 720//7 721//7
f 700//7 696//7 699//7
f 728//7 719//7 720//7
f 701//7 696//7 700//7
f 729//7 719//7 728//7
f 729//7 718//7 719//7
f 702//7 696//7 701//7
f 703//7 696//7 702//7
f 729//7 717//7 718//7
f 730//7 717//7 729//7
f 704//7 696//7 703//7
f 730//7 716//7 717//7
f 705//7 750//7 704//7
f 750//7 696//7 704//7
f 730//7 715//7 716//7
f 706//7 750//7 705//7
f 730//7 714//7 715//7
f 707//7 750//7 706//7
f 731//7 714//7 730//7
f 708//7 750//7 707//7
f 731//7 713//7 714//7
f 709//7 750//7 708//7
f 731//7 712//7 713//7
f 710//7 750//7 709//7
f 731//7 711//7 712//7
f 711//7 750//7 710//7
f 731//7 750//7 711//7
f 731//7 749//7 750//7
f 751//7 696//7 750//7
f 732//7 749//7 731//7
f 732//7 748//7 749//7
f 732//7 747//7 748//7
f 733//7 747//7 732//7
f 733//7 746//7 747//7
f 734//7 746//7 733//7
f 734//7 745//7 746//7
f 734//7 744//7 745//7
f 735//7 744//7 734//7
f 735//7 743//7 744//7
f 735//7 742//7 743//7
f 736//7 742//7 735//7
f 736//7 741//7 742//7
f 737//7 741//7 736//7
f 737//7 740//7 741//7
f 737//7 739//7 740//7
f 738//7 739//7 737//7
f 759//7 757//7 758//7
f 759//7 752//7 757//7
f 752//7 756//7 757//7
f 753//7 756//7 752//7
f 753//7 755//7 756//7
f 753//7 754//7 755//7
f 809//7 855//7 808//7
f 810//7 855//7 809//7
f 810//7 854//7 855//7
f 811//7 854//7 810//7
f 811//7 853//7 854//7
f 812//7 853//7 811//7
f 812//7 852//7 853//7
f 813//7 852//7 812//7
f 813//7 851//7 852//7
f 814//7 851//7 813//7
f 814//7 850//7 851//7
f 815//7 850//7 814//7
f 815//7 849//7 850//7
f 816//7 849//7 815//7
f 816//7 848//7 849//7
f 817//7 848//7 816//7
f 817//7 847//7 848//7
f 818//7 847//7 817//7
f 818//7 846//7 847//7
f 819//7 846//7 818//7
f 819//7 845//7 846//7
f 819//7 844//7 845//7
f 820//7 844//7 819//7
f 821//7 844//7 820//7
f 821//7 843//7 844//7
f 822//7 843//7 821//7
f 822//7 842//7 843//7
f 823//7 842//7 822//7
f 823//7 841//7 842//7
f 824//7 841//7 823//7
f 824//7 840//7 841//7
f 825//7 840//7 824//7
f 825//7 839//7 840//7
f 826//7 839//7 825//7
f 826//7 838//7 839//7
f 827//7 838//7 826//7
f 827//7 837//7 838//7
f 828//7 837//7 827//7
f 828//7 836//7 837//7
f 829//7 836//7 828//7
f 829//7 835//7 836//7
f 830//7 835//7 829//7
f 830//7 834//7 835//7
f 831//7 834//7 830//7
f 831//7 833//7 834//7
f 832//7 833//7 831//7
f 761//7 807//7 760//7
f 761//7 806//7 807//7
f 762//7 806//7 761//7
f 762//7 805//7 806//7
f 763//7 805//7 762//7
f 763//7 804//7 805//7
f 764//7 804//7 763//7
f 764//7 803//7 804//7
f 765//7 803//7 764//7
f 765//7 802//7 803//7
f 766//7 802//7 765//7
f 766//7 801//7 802//7
f 767//7 801//7 766//7
f 767//7 800//7 801//7
f 768//7 800//7 767//7
f 768//7 799//7 800//7
f 769//7 799//7 768//7
f 769//7 798//7 799//7
f 770//7 798//7 769//7
f 770//7 797//7 798//7
f 771//7 797//7 770//7
f 771//7 796//7 797//7
f 772//7 796//7 771//7
f 773//7 796//7 772//7
f 773//7 795//7 796//7
f 773//7 794//7 795//7
f 774//7 794//7 773//7
f 774//7 793//7 794//7
f 775//7 793//7 774//7
f 775//7 792//7 793//7
f 776//7 792//7 775//7
f 776//7 791//7 792//7
f 777//7 791//7 776//7
f 777//7 790//7 791//7
f 778//7 790//7 777//7
f 778//7 789//7 790//7
f 779//7 789//7 778//7
f 779//7 788//7 789//7
f 780//7 788//7 779//7
f 780//7 787//7 788//7
f 781//7 787//7 780//7
f 781//7 786//7 787//7
f 782//7 786//7 781//7
f 782//7 785//7 786//7
f 783//7 785//7 782//7
f 783//7 784//7 785//7
f 858//7 856//7 857//7
f 858//7 1015//7 856//7
f 859//7 1015//7 858//7
f 860//7 1015//7 859//7
f 861//7 1015//7 860//7
f 862//7 1015//7 861//7
f 863//7 1015//7 862//7
f 864//7 1015//7 863//7
f 865//7 1014//7 864//7
f 1014//7 1015//7 864//7
f 865//7 1013//7 1014//7
f 866//7 1051//7 865//7
f 1051//7 1052//7 865//7
f 1052//7 1013//7 865//7
f 1053//7 1013//7 1052//7
f 1053//7 1012//7 1013//7
f 1054//7 1012//7 1053//7
f 866//7 1050//7 1051//7
f 1055//7 1012//7 1054//7
f 866//7 1049//7 1050//7
f 1056//7 1012//7 1055//7
f 866//7 1048//7 1049//7
f 1056//7 1011//7 1012//7
f 1057//7 1011//7 1056//7
f 866//7 1047//7 1048//7
f 867//7 1047//7 866//7
f 1058//7 1011//7 1057//7
f 1058//7 1010//7 1011//7
f 867//7 1046//7 1047//7
f 1059//7 1010//7 1058//7
f 867//7 1045//7 1046//7
f 1059//7 1009//7 1010//7
f 1060//7 1009//7 1059//7
f 867//7 1044//7 1045//7
f 1060//7 1008//7 1009//7
f 868//7 1044//7 867//7
f 1061//7 1008//7 1060//7
f 1061//7 1007//7 1008//7
f 868//7 1043//7 1044//7
f 1061//7 1006//7 1007//7
f 1062//7 1006//7 1061//7
f 868//7 1042//7 1043//7
f 869//7 1042//7 868//7
f 1062//7 1005//7 1006//7
f 1063//7 1005//7 1062//7
f 869//7 1041//7 1042//7
f 1063//7 1004//7 1005//7
f 1016//7 1004//7 1063//7
f 869//7 1040//7 1041//7
f 1016//7 1003//7 1004//7
f 870//7 1040//7 869//7
f 1017//7 1003//7 1016//7
f 1017//7 1002//7 1003//7
f 870//7 1039//7 1040//7
f 871//7 1039//7 870//7
f 1017//7 1001//7 1002//7
f 1018//7 1001//7 1017//7
f 871//7 1038//7 1039//7
f 872//7 1038//7 871//7
f 1018//7 1000//7 1001//7
f 873//7 1038//7 872//7
f 1019//7 1000//7 1018//7
f 873//7 1037//7 1038//7
f 1019//7 999//7 1000//7
f 874//7 1037//7 873//7
f 1020//7 999//7 1019//7
f 874//7 1036//7 1037//7
f 875//7 1036//7 874//7
f 1020//7 998//7 999//7
f 1021//7 998//7 1020//7
f 876//7 1036//7 875//7
f 876//7 1035//7 1036//7
f 1021//7 997//7 998//7
f 877//7 1035//7 876//7
f 1022//7 997//7 1021//7
f 877//7 1034//7 1035//7
f 878//7 1034//7 877//7
f 1022//7 996//7 997//7
f 1023//7 996//7 1022//7
f 878//7 1033//7 1034//7
f 879//7 1033//7 878//7
f 1024//7 996//7 1023//7
f 1024//7 995//7 996//7
f 879//7 1032//7 1033//7
f 880//7 1032//7 879//7
f 1025//7 995//7 1024//7
f 880//7 1031//7 1032//7
f 1025//7 994//7 995//7
f 881//7 1031//7 880//7
f 1026//7 994//7 1025//7
f 881//7 1030//7 1031//7
f 1027//7 994//7 1026//7
f 881//7 1029//7 1030//7
f 882//7 1029//7 881//7
f 1028//7 994//7 1027//7
f 882//7 1028//7 1029//7
f 882//7 994//7 1028//7
f 882//7 993//7 994//7
f 883//7 993//7 882//7
f 883//7 992//7 993//7
f 884//7 992//7 883//7
f 884//7 991//7 992//7
f 885//7 991//7 884//7
f 886//7 991//7 885//7
f 886//7 990//7 991//7
f 887//7 990//7 886//7
f 887//7 989//7 990//7
f 888//7 989//7 887//7
f 889//7 989//7 888//7
f 890//7 989//7 889//7
f 890//7 988//7 989//7
f 891//7 988//7 890//7
f 892//7 988//7 891//7
f 893//7 988//7 892//7
f 893//7 987//7 988//7
f 894//7 987//7 893//7
f 895//7 987//7 894//7
f 896//7 987//7 895//7
f 896//7 986//7 987//7
f 897//7 986//7 896//7
f 897//7 985//7 986//7
f 898//7 985//7 897//7
f 898//7 984//7 985//7
f 899//7 984//7 898//7
f 899//7 983//7 984//7
f 900//7 983//7 899//7
f 900//7 982//7 983//7
f 900//7 981//7 982//7
f 901//7 981//7 900//7
f 901//7 980//7 981//7
f 902//7 980//7 901//7
f 902//7 979//7 980//7
f 903//7 979//7 902//7
f 904//7 979//7 903//7
f 904//7 978//7 979//7
f 905//7 978//7 904//7
f 905//7 977//7 978//7
f 906//7 977//7 905//7
f 906//7 976//7 977//7
f 907//7 976//7 906//7
f 907//7 975//7 976//7
f 908//7 975//7 907//7
f 908//7 974//7 975//7
f 909//7 974//7 908//7
f 909//7 973//7 974//7
f 910//7 973//7 909//7
f 910//7 972//7 973//7
f 911//7 972//7 910//7
f 911//7 971//7 972//7
f 912//7 971//7 911//7
f 912//7 970//7 971//7
f 913//7 970//7 912//7
f 913//7 969//7 970//7
f 914//7 969//7 913//7
f 914//7 968//7 969//7
f 915//7 968//7 914//7
f 915//7 967//7 968//7
f 916//7 967//7 915//7
f 916//7 966//7 967//7
f 917//7 966//7 916//7
f 917//7 965//7 966//7
f 918//7 965//7 917//7
f 918//7 964//7 965//7
f 919//7 964//7 918//7
f 919//7 963//7 964//7
f 920//7 963//7 919//7
f 921//7 963//7 920//7
f 921//7 962//7 963//7
f 922//7 962//7 921//7
f 922//7 961//7 962//7
f 923//7 961//7 922//7
f 923//7 960//7 961//7
f 924//7 960//7 923//7
f 924//7 959//7 960//7
f 925//7 1100//7 924//7
f 1100//7 959//7 924//7
f 1100//7 1101//7 959//7
f 1101//7 958//7 959//7
f 925//7 1099//7 1100//7
f 1102//7 958//7 1101//7
f 925//7 1098//7 1099//7
f 1103//7 958//7 1102//7
f 925//7 1097//7 1098//7
f 926//7 1097//7 925//7
f 1104//7 958//7 1103//7
f 926//7 1096//7 1097//7
f 1105//7 958//7 1104//7
f 926//7 1095//7 1096//7
f 1106//7 958//7 1105//7
f 1106//7 957//7 958//7
f 926//7 1094//7 1095//7
f 1107//7 957//7 1106//7
f 927//7 1094//7 926//7
f 927//7 1093//7 1094//7
f 1108//7 957//7 1107//7
f 1108//7 956//7 957//7
f 927//7 1092//7 1093//7
f 928//7 1092//7 927//7
f 1109//7 956//7 1108//7
f 928//7 1091//7 1092//7
f 1110//7 956//7 1109//7
f 1110//7 955//7 956//7
f 928//7 1090//7 1091//7
f 929//7 1090//7 928//7
f 1111//7 955//7 1110//7
f 929//7 1089//7 1090//7
f 1111//7 954//7 955//7
f 930//7 1089//7 929//7
f 930//7 1088//7 1089//7
f 1064//7 954//7 1111//7
f 1064//7 953//7 954//7
f 930//7 1087//7 1088//7
f 931//7 1087//7 930//7
f 1065//7 953//7 1064//7
f 931//7 1086//7 1087//7
f 1066//7 953//7 1065//7
f 1066//7 952//7 953//7
f 931//7 1085//7 1086//7
f 1067//7 952//7 1066//7
f 932//7 1085//7 931//7
f 932//7 1084//7 1085//7
f 1068//7 952//7 1067//7
f 932//7 1083//7 1084//7
f 1068//7 951//7 952//7
f 1069//7 951//7 1068//7
f 933//7 1083//7 932//7
f 933//7 1082//7 1083//7
f 1070//7 951//7 1069//7
f 933//7 1081//7 1082//7
f 1071//7 951//7 1070//7
f 933//7 1080//7 1081//7
f 1071//7 950//7 951//7
f 1072//7 950//7 1071//7
f 934//7 1080//7 933//7
f 934//7 1079//7 1080//7
f 1073//7 950//7 1072//7
f 934//7 1078//7 1079//7
f 1074//7 950//7 1073//7
f 934//7 1077//7 1078//7
f 1075//7 950//7 1074//7
f 934//7 1076//7 1077//7
f 1076//7 950//7 1075//7
f 934//7 950//7 1076//7
f 934//7 949//7 950//7
f 935//7 949//7 934//7
f 935//7 948//7 949//7
f 936//7 948//7 935//7
f 937//7 948//7 936//7
f 937//7 947//7 948//7
f 938//7 947//7 937//7
f 938//7 946//7 947//7
f 939//7 946//7 938//7
f 939//7 945//7 946//7
f 940//7 945//7 939//7
f 940//7 944//7 945//7
f 941//7 944//7 940//7
f 941//7 943//7 944//7
f 942//7 943//7 941//7
f 1156//7 1154//7 1155//7
f 1157//7 1154//7 1156//7
f 1157//7 1153//7 1154//7
f 1158//7 1153//7 1157//7
f 1159//7 1153//7 1158//7
f 1159//7 1152//7 1153//7
f 1160//7 1152//7 1159//7
f 1114//7 1112//7 1113//7
f 1114//7 1168//7 1112//7
f 1160//7 1151//7 1152//7
f 1161//7 1151//7 1160//7
f 1162//7 1151//7 1161//7
f 1162//7 1150//7 1151//7
f 1163//7 1150//7 1162//7
f 1163//7 1149//7 1150//7
f 1164//7 1149//7 1163//7
f 1165//7 1149//7 1164//7
f 1165//7 1148//7 1149//7
f 1166//7 1148//7 1165//7
f 1167//7 1148//7 1166//7
f 1167//7 1128//7 1148//7
f 1128//7 1147//7 1148//7
f 1114//7 1167//7 1168//7
f 1114//7 1116//7 1167//7
f 1116//7 1117//7 1167//7
f 1117//7 1118//7 1167//7
f 1118//7 1119//7 1167//7
f 1119//7 1120//7 1167//7
f 1120//7 1121//7 1167//7
f 1121//7 1122//7 1167//7
f 1122//7 1123//7 1167//7
f 1123//7 1124//7 1167//7
f 1124//7 1125//7 1167//7
f 1125//7 1126//7 1167//7
f 1126//7 1127//7 1167//7
f 1127//7 1128//7 1167//7
f 1129//7 1147//7 1128//7
f 1130//7 1147//7 1129//7
f 1131//7 1147//7 1130//7
f 1132//7 1147//7 1131//7
f 1132//7 1146//7 1147//7
f 1133//7 1146//7 1132//7
f 1134//7 1146//7 1133//7
f 1135//7 1146//7 1134//7
f 1135//7 1145//7 1146//7
f 1136//7 1145//7 1135//7
f 1137//7 1145//7 1136//7
f 1137//7 1144//7 1145//7
f 1138//7 1144//7 1137//7
f 1114//7 1115//7 1116//7
f 1139//7 1144//7 1138//7
f 1139//7 1143//7 1144//7
f 1140//7 1143//7 1139//7
f 1141//7 1143//7 1140//7
f 1141//7 1142//7 1143//7
f 1186//7 1184//7 1185//7
f 1186//7 1183//7 1184//7
f 1187//7 1183//7 1186//7
f 1187//7 1182//7 1183//7
f 1188//7 1182//7 1187//7
f 1188//7 1181//7 1182//7
f 1189//7 1181//7 1188//7
f 1189//7 1180//7 1181//7
f 1190//7 1180//7 1189//7
f 1190//7 1179//7 1180//7
f 1191//7 1179//7 1190//7
f 1191//7 1178//7 1179//7
f 1192//7 1178//7 1191//7
f 1192//7 1177//7 1178//7
f 1193//7 1177//7 1192//7
f 1193//7 1176//7 1177//7
f 1194//7 1176//7 1193//7
f 1194//7 1175//7 1176//7
f 1195//7 1175//7 1194//7
f 1195//7 1174//7 1175//7
f 1196//7 1174//7 1195//7
f 1196//7 1173//7 1174//7
f 1197//7 1173//7 1196//7
f 1198//7 1173//7 1197//7
f 1198//7 1220//7 1173//7
f 1198//7 1219//7 1220//7
f 1199//7 1219//7 1198//7
f 1199//7 1218//7 1219//7
f 1200//7 1218//7 1199//7
f 1200//7 1217//7 1218//7
f 1201//7 1217//7 1200//7
f 1201//7 1216//7 1217//7
f 1202//7 1216//7 1201//7
f 1202//7 1215//7 1216//7
f 1203//7 1215//7 1202//7
f 1203//7 1214//7 1215//7
f 1204//7 1214//7 1203//7
f 1204//7 1213//7 1214//7
f 1205//7 1213//7 1204//7
f 1205//7 1212//7 1213//7
f 1206//7 1212//7 1205//7
f 1206//7 1211//7 1212//7
f 1207//7 1211//7 1206//7
f 1207//7 1210//7 1211//7
f 1208//7 1210//7 1207//7
f 1208//7 1209//7 1210//7
f 1171//7 1169//7 1170//7
f 1171//7 1172//7 1169//7
f 1222//7 1278//7 1221//7
f 1222//7 1277//7 1278//7
f 1222//7 1276//7 1277//7
f 1223//7 1276//7 1222//7
f 1224//7 1276//7 1223//7
f 1225//7 1275//7 1224//7
f 1275//8 1276//8 1224//8
f 1225//7 1274//7 1275//7
f 1225//7 1273//7 1274//7
f 1226//7 1273//7 1225//7
f 1226//7 1272//7 1273//7
f 1226//7 1271//7 1272//7
f 1227//7 1271//7 1226//7
f 1227//7 1270//7 1271//7
f 1251//7 1249//7 1250//7
f 1252//7 1249//7 1251//7
f 1227//7 1269//7 1270//7
f 1253//7 1249//7 1252//7
f 1228//7 1269//7 1227//7
f 1228//7 1268//7 1269//7
f 1254//7 1249//7 1253//7
f 1255//7 1249//7 1254//7
f 1228//7 1267//7 1268//7
f 1256//7 1249//7 1255//7
f 1228//7 1266//7 1267//7
f 1257//7 1249//7 1256//7
f 1228//7 1265//7 1266//7
f 1258//7 1249//7 1257//7
f 1229//7 1265//7 1228//7
f 1259//7 1249//7 1258//7
f 1229//7 1264//7 1265//7
f 1260//7 1249//7 1259//7
f 1229//7 1263//7 1264//7
f 1261//7 1249//7 1260//7
f 1229//7 1262//7 1263//7
f 1262//7 1249//7 1261//7
f 1229//7 1249//7 1262//7
f 1230//7 1249//7 1229//7
f 1231//7 1249//7 1230//7
f 1232//7 1249//7 1231//7
f 1232//7 1248//7 1249//7
f 1233//7 1248//7 1232//7
f 1233//7 1247//7 1248//7
f 1233//7 1246//7 1247//7
f 1234//7 1246//7 1233//7
f 1234//7 1245//7 1246//7
f 1234//7 1244//7 1245//7
f 1234//7 1243//7 1244//7
f 1235//7 1243//7 1234//7
f 1235//7 1242//7 1243//7
f 1235//7 1241//7 1242//7
f 1236//7 1241//7 1235//7
f 1236//7 1240//7 1241//7
f 1236//7 1239//7 1240//7
f 1237//7 1239//7 1236//7
f 1237//7 1238//7 1239//7
f 1320//7 1318//7 1319//7
f 1320//7 1317//7 1318//7
f 1321//7 1317//7 1320//7
f 1321//7 1316//7 1317//7
f 1322//7 1316//7 1321//7
f 1322//7 1315//7 1316//7
f 1322//7 1314//7 1315//7
f 1323//7 1314//7 1322//7
f 1323//7 1313//7 1314//7
f 1280//7 1333//7 1279//7
f 1280//7 1332//7 1333//7
f 1324//7 1313//7 1323//7
f 1324//7 1312//7 1313//7
f 1324//7 1311//7 1312//7
f 1325//7 1311//7 1324//7
f 1325//7 1310//7 1311//7
f 1326//7 1310//7 1325//7
f 1326//7 1309//7 1310//7
f 1326//7 1308//7 1309//7
f 1327//7 1308//7 1326//7
f 1327//7 1307//7 1308//7
f 1328//7 1307//7 1327//7
f 1328//7 1297//7 1307//7
f 1297//7 1298//7 1307//7
f 1298//7 1299//7 1307//7
f 1299//7 1300//7 1307//7
f 1300//7 1301//7 1307//7
f 1301//7 1302//7 1307//7
f 1302//7 1303//7 1307//7
f 1303//7 1304//7 1307//7
f 1304//7 1305//7 1307//7
f 1305//7 1306//7 1307//7
f 1329//7 1295//7 1328//7
f 1295//7 1296//7 1328//7
f 1296//7 1297//7 1328//7
f 1330//7 1293//7 1329//7
f 1293//7 1294//7 1329//7
f 1294//7 1295//7 1329//7
f 1330//7 1292//7 1293//7
f 1330//7 1291//7 1292//7
f 1331//7 1291//7 1330//7
f 1331//7 1290//7 1291//7
f 1331//7 1289//7 1290//7
f 1280//7 1331//7 1332//7
f 1280//7 1285//7 1331//7
f 1285//7 1286//7 1331//7
f 1286//7 1287//7 1331//7
f 1287//7 1288//7 1331//7
f 1288//7 1289//7 1331//7
f 1280//7 1284//7 1285//7
f 1280//7 1283//7 1284//7
f 1280//7 1282//7 1283//7
f 1280//7 1281//7 1282//7
f 1335//7 1381//7 1334//7
f 1335//7 1380//7 1381//7
f 1336//7 1380//7 1335//7
f 1336//7 1379//7 1380//7
f 1337//7 1379//7 1336//7
f 1337//7 1378//7 1379//7
f 1338//7 1378//7 1337//7
f 1338//7 1377//7 1378//7
f 1339//7 1377//7 1338//7
f 1339//7 1376//7 1377//7
f 1340//7 1376//7 1339//7
f 1340//7 1375//7 1376//7
f 1341//7 1382//7 1340//7
f 1382//7 1375//7 1340//7
f 1341//7 1429//7 1382//7
f 1383//7 1375//7 1382//7
f 1341//7 1428//7 1429//7
f 1384//7 1375//7 1383//7
f 1341//7 1427//7 1428//7
f 1385//7 1375//7 1384//7
f 1385//7 1374//7 1375//7
f 1342//7 1427//7 1341//7
f 1342//7 1426//7 1427//7
f 1386//7 1374//7 1385//7
f 1342//7 1425//7 1426//7
f 1387//7 1374//7 1386//7
f 1342//7 1424//7 1425//7
f 1388//7 1374//7 1387//7
f 1388//7 1373//7 1374//7
f 1343//7 1424//7 1342//7
f 1343//7 1423//7 1424//7
f 1389//7 1373//7 1388//7
f 1343//7 1422//7 1423//7
f 1390//7 1373//7 1389//7
f 1390//7 1372//7 1373//7
f 1344//7 1422//7 1343//7
f 1344//7 1421//7 1422//7
f 1391//7 1372//7 1390//7
f 1391//7 1371//7 1372//7
f 1345//7 1421//7 1344//7
f 1345//7 1420//7 1421//7
f 1392//7 1371//7 1391//7
f 1345//7 1419//7 1420//7
f 1393//7 1371//7 1392//7
f 1393//7 1370//7 1371//7
f 1346//7 1419//7 1345//7
f 1346//7 1418//7 1419//7
f 1394//7 1370//7 1393//7
f 1347//7 1418//7 1346//7
f 1347//7 1417//7 1418//7
f 1394//7 1369//7 1370//7
f 1395//7 1369//7 1394//7
f 1347//7 1416//7 1417//7
f 1396//7 1369//7 1395//7
f 1348//7 1416//7 1347//7
f 1396//7 1368//7 1369//7
f 1348//7 1415//7 1416//7
f 1397//7 1368//7 1396//7
f 1348//7 1414//7 1415//7
f 1349//7 1414//7 1348//7
f 1398//7 1368//7 1397//7
f 1398//7 1367//7 1368//7
f 1349//7 1413//7 1414//7
f 1399//7 1367//7 1398//7
f 1350//7 1413//7 1349//7
f 1399//7 1366//7 1367//7
f 1350//7 1412//7 1413//7
f 1400//7 1366//7 1399//7
f 1350//7 1411//7 1412//7
f 1401//7 1366//7 1400//7
f 1351//7 1411//7 1350//7
f 1401//7 1365//7 1366//7
f 1351//7 1410//7 1411//7
f 1402//7 1365//7 1401//7
f 1351//7 1409//7 1410//7
f 1403//7 1365//7 1402//7
f 1351//7 1408//7 1409//7
f 1404//7 1365//7 1403//7
f 1352//7 1408//7 1351//7
f 1404//7 1364//7 1365//7
f 1352//7 1407//7 1408//7
f 1405//7 1364//7 1404//7
f 1352//7 1406//7 1407//7
f 1406//7 1364//7 1405//7
f 1352//7 1364//7 1406//7
f 1353//7 1364//7 1352//7
f 1353//7 1363//7 1364//7
f 1354//7 1363//7 1353//7
f 1354//7 1362//7 1363//7
f 1355//7 1362//7 1354//7
f 1355//7 1361//7 1362//7
f 1356//7 1361//7 1355//7
f 1356//7 1360//7 1361//7
f 1357//7 1360//7 1356//7
f 1357//7 1359//7 1360//7
f 1358//7 1359//7 1357//7
f 1468//7 1470//7 1467//7
f 1470//7 1466//7 1467//7
f 1470//7 1465//7 1466//7
f 1470//7 1464//7 1465//7
f 1470//7 1463//7 1464//7
f 1470//7 1462//7 1463//7
f 1470//7 1461//7 1462//7
f 1470//7 1460//7 1461//7
f 1470//7 1459//7 1460//7
f 1470//7 1471//7 1459//7
f 1471//7 1472//7 1459//7
f 1472//7 1458//7 1459//7
f 1468//7 1507//7 1470//7
f 1473//7 1458//7 1472//7
f 1474//7 1458//7 1473//7
f 1475//7 1458//7 1474//7
f 1476//7 1458//7 1475//7
f 1476//7 1457//7 1458//7
f 1477//7 1457//7 1476//7
f 1478//7 1457//7 1477//7
f 1478//7 1456//7 1457//7
f 1479//7 1456//7 1478//7
f 1480//7 1456//7 1479//7
f 1480//7 1455//7 1456//7
f 1481//7 1455//7 1480//7
f 1482//7 1455//7 1481//7
f 1482//7 1454//7 1455//7
f 1483//7 1454//7 1482//7
f 1484//7 1454//7 1483//7
f 1484//7 1453//7 1454//7
f 1485//7 1453//7 1484//7
f 1485//7 1452//7 1453//7
f 1486//7 1452//7 1485//7
f 1487//7 1452//7 1486//7
f 1487//7 1451//7 1452//7
f 1488//7 1451//7 1487//7
f 1489//7 1451//7 1488//7
f 1489//7 1450//7 1451//7
f 1490//7 1450//7 1489//7
f 1490//7 1449//7 1450//7
f 1491//7 1449//7 1490//7
f 1468//7 1506//7 1507//7
f 1492//7 1449//7 1491//7
f 1468//7 1505//7 1506//7
f 1468//7 1504//7 1505//7
f 1468//7 1430//7 1504//7
f 1430//7 1503//7 1504//7
f 1493//7 1449//7 1492//7
f 1430//7 1502//7 1503//7
f 1430//7 1501//7 1502//7
f 1493//7 1448//7 1449//7
f 1494//7 1448//7 1493//7
f 1430//7 1500//7 1501//7
f 1430//7 1499//7 1500//7
f 1430//7 1498//7 1499//7
f 1495//7 1448//7 1494//7
f 1430//7 1497//7 1498//7
f 1430//7 1496//7 1497//7
f 1430//7 1495//7 1496//7
f 1430//7 1448//7 1495//7
f 1430//7 1447//7 1448//7
f 1430//7 1446//7 1447//7
f 1430//7 1445//7 1446//7
f 1468//7 1469//7 1430//7
f 1431//7 1445//7 1430//7
f 1431//7 1444//7 1445//7
f 1432//7 1444//7 1431//7
f 1433//7 1444//7 1432//7
f 1434//7 1444//7 1433//7
f 1435//7 1444//7 1434//7
f 1435//7 1443//7 1444//7
f 1436//7 1443//7 1435//7
f 1437//7 1443//7 1436//7
f 1438//7 1443//7 1437//7
f 1439//7 1443//7 1438//7
f 1439//7 1442//7 1443//7
f 1440//7 1442//7 1439//7
f 1441//7 1442//7 1440//7
f 1513//7 1511//7 1512//7
f 1513//7 1510//7 1511//7
f 1510//7 1508//7 1509//7
f 1510//7 1519//7 1508//7
f 1513//7 1519//7 1510//7
f 1514//7 1519//7 1513//7
f 1514//7 1516//7 1519//7
f 1516//7 1518//7 1519//7
f 1514//7 1515//7 1516//7
f 1517//7 1518//7 1516//7
f 1522//7 1530//7 1521//7
f 1530//7 1520//7 1521//7
f 1530//7 1531//7 1520//7
f 1522//7 1529//7 1530//7
f 1522//7 1526//7 1529//7
f 1526//7 1528//7 1529//7
f 1526//7 1527//7 1528//7
f 1522//7 1525//7 1526//7
f 1522//7 1524//7 1525//7
f 1522//7 1523//7 1524//7
