# Blender v2.79 (sub 0) OBJ File: 'lens.blend'
# www.blender.org
mtllib lens.mtl
o Cube
v 0.500000 -0.500000 0.140000
v 0.500000 -0.500000 -0.360000
v -0.500000 -0.500000 -0.360000
v -0.500000 -0.500000 0.140000
v 0.500000 0.500000 0.140000
v 0.500000 0.500000 -0.360000
v -0.500000 0.500000 -0.360000
v -0.500000 0.500000 0.140000
v 0.000000 0.000000 0.390000
v 0.000000 0.000000 -0.110000
vt 0.500000 0.875000
vt 0.250000 1.000000
vt 0.750000 1.000000
vt 0.250000 0.625000
vt 0.250000 0.765625
vt 0.750000 0.765625
vt 0.750000 0.625000
vt 0.250000 0.375000
vt 0.000000 0.375000
vt -0.000000 0.625000
vt 1.000000 0.375000
vt 0.750000 0.375000
vt 1.000000 0.625000
vt 0.500000 0.500000
vt 0.750000 0.250000
vt 0.250000 0.250000
vn 0.0000 0.4472 -0.8944
vn 0.0000 1.0000 0.0000
vn 1.0000 0.0000 0.0000
vn -0.4472 0.0000 -0.8944
vn -1.0000 0.0000 0.0000
vn 0.4472 0.0000 0.8944
vn 0.0000 -0.4472 -0.8944
vn 0.0000 -0.4472 0.8944
vn 0.0000 0.4472 0.8944
vn -0.4472 0.0000 0.8944
vn 0.0000 -1.0000 0.0000
vn 0.4472 0.0000 -0.8944
usemtl Material
s off
f 10/1/1 2/2/1 3/3/1
f 5/4/2 6/5/2 7/6/2 8/7/2
f 1/8/3 2/9/3 6/10/3 5/4/3
f 10/1/4 6/5/4 2/2/4
f 3/11/5 4/12/5 8/7/5 7/13/5
f 9/14/6 1/8/6 5/4/6
f 7/6/7 6/5/7 10/1/7
f 4/12/8 1/8/8 9/14/8
f 9/14/9 5/4/9 8/7/9
f 4/12/10 9/14/10 8/7/10
f 4/12/11 3/15/11 2/16/11 1/8/11
f 7/6/12 10/1/12 3/3/12
