# Blender v2.79 (sub 0) OBJ File: 'nc_tree_eggcorn.blend'
# www.blender.org
mtllib nc_tree_eggcorn.mtl
o Cube
v -0.151464 -0.081428 0.297338
v 0.230078 -0.313685 0.148669
v 0.230078 -0.313685 -0.148669
v 0.121753 0.059294 0.000000
v 0.082735 -0.497552 0.148669
v -0.011942 -0.313650 0.297338
v 0.082735 -0.497552 -0.148669
v -0.159285 -0.497517 -0.000000
v -0.011942 -0.313650 -0.297338
v -0.120267 0.059328 0.148669
v -0.120267 0.059328 -0.148669
v -0.253962 -0.313615 0.148669
v -0.253962 -0.313615 -0.148669
vt 1.000000 0.000000
vt 0.500000 0.812500
vt 0.000000 0.000000
vt 1.000000 1.000000
vt 0.500000 0.187500
vt -0.000000 1.000000
vt 0.000000 1.000000
vt -0.000000 0.312500
vt 1.000000 0.312500
vt 1.000000 1.000000
vt 0.500000 1.000000
vt -0.000000 0.312500
vt 1.000000 0.312500
vt 0.500000 -0.000000
vt 1.000000 0.312500
vt 0.000000 0.312500
vt -0.000000 0.000000
vt 1.000000 -0.000000
vt 1.000000 0.312500
vt 0.000000 0.312500
vt 0.500000 0.000000
vt 1.000000 1.000000
vt -0.000000 1.000000
vt 0.518386 0.992126
vt 0.004961 0.315000
vt 1.000000 0.312500
vt 0.000000 0.312500
vt 1.000000 0.312500
vt 1.000000 1.000000
vt -0.000000 1.000000
vt 0.500000 1.000000
vt 0.500000 0.000000
vt 0.000000 0.000000
vt 1.000000 -0.000000
vt 0.000000 0.000000
vt 0.000000 0.000000
vt 0.000000 0.000000
vn 0.0001 1.0000 0.0000
vn -0.0001 -1.0000 0.0000
vn 0.4698 0.4412 -0.7646
vn 0.9603 0.2789 -0.0000
vn 0.4826 -0.3868 -0.7858
vn -0.3780 -0.6919 -0.6152
vn 0.4826 -0.3868 0.7858
vn 0.4698 0.4412 0.7646
vn -0.5144 0.1844 0.8375
vn -0.9413 0.3375 0.0000
vn -0.5144 0.1844 -0.8375
vn -0.8891 -0.4577 0.0000
vn 0.7804 -0.6253 -0.0000
vn -0.3780 -0.6919 0.6152
g Cube_Cube_top
usemtl top
s off
f 10/1/1 4/2/1 11/3/1
g Cube_Cube_bottom
usemtl bottom
f 5/4/2 8/5/2 7/6/2
g Cube_Cube_sides
usemtl sides
f 4/7/3 3/8/3 9/9/3 11/10/3
f 4/11/4 2/12/4 3/13/4
f 7/14/5 9/9/5 3/8/5
f 13/15/6 9/16/6 7/17/6 8/18/6
f 2/19/7 6/20/7 5/21/7
f 4/22/8 10/23/8 6/20/8 2/19/8
f 10/24/9 12/25/9 6/26/9
f 13/27/10 12/28/10 10/29/10 11/30/10
f 13/15/11 11/31/11 9/16/11
f 13/27/12 8/32/12 12/28/12
f 2/12/13 5/33/13 7/34/13 3/13/13
g Cube_Cube_sides_NONE
usemtl sides_NONE
f 12/35/14 8/36/14 5/33/14 6/37/14
